{
    "asset" : {
        "generator" : "Khronos glTF Blender I/O v1.2.75",
        "version" : "2.0"
    },
    "scene" : 0,
    "scenes" : [
        {
            "name" : "Scene",
            "nodes" : [
                0,
                1,
                2,
                3,
                4,
                5,
                6,
                7,
                8,
                9,
                10
            ]
        }
    ],
    "nodes" : [
        {
            "mesh" : 0,
            "name" : "Cube.004",
            "rotation" : [
                0.7071067690849304,
                -0.7071067690849304,
                0,
                -1.152023116901546e-07
            ],
            "scale" : [
                0.25,
                0.25,
                0.75
            ],
            "translation" : [
                -0.4011046290397644,
                1.6427572965621948,
                0.7543439865112305
            ]
        },
        {
            "mesh" : 1,
            "name" : "Cube",
            "rotation" : [
                0.7071067690849304,
                0.7071068286895752,
                0,
                -1.1520231879558196e-07
            ],
            "scale" : [
                0.5454003810882568,
                0.8212733864784241,
                0.8212733864784241
            ],
            "translation" : [
                -0.0011047720909118652,
                -0.3677259385585785,
                2.211071014404297
            ]
        },
        {
            "mesh" : 2,
            "name" : "Cube.005",
            "rotation" : [
                -0.49999991059303284,
                0.49999985098838806,
                0.5000001192092896,
                -0.5000001192092896
            ],
            "scale" : [
                0.9675298929214478,
                0.6571533679962158,
                0.6571533679962158
            ],
            "translation" : [
                -0.0011046528816223145,
                1.0988463163375854,
                2.1451492309570312
            ]
        },
        {
            "mesh" : 3,
            "name" : "Cube.007",
            "rotation" : [
                0.27059805393218994,
                0.27059802412986755,
                -0.6532815098762512,
                0.6532814502716064
            ],
            "scale" : [
                0.25,
                0.25,
                0.75
            ],
            "translation" : [
                -0.0011047720909118652,
                2.422757148742676,
                1.8956736326217651
            ]
        },
        {
            "mesh" : 4,
            "name" : "Cube.009",
            "rotation" : [
                0.7071067690849304,
                0.7071067690849304,
                0,
                -1.152023116901546e-07
            ],
            "scale" : [
                0.0717705711722374,
                0.19320091605186462,
                0.2431412637233734
            ],
            "translation" : [
                -0.3102262616157532,
                -1.033713459968567,
                2.965712070465088
            ]
        },
        {
            "mesh" : 5,
            "name" : "Cube.006",
            "rotation" : [
                0,
                0,
                -0.7071067690849304,
                0.7071067690849304
            ],
            "scale" : [
                0.438519150018692,
                0.6603297591209412,
                0.6016788482666016
            ],
            "translation" : [
                -0.0011047124862670898,
                -1.313878059387207,
                2.1673288345336914
            ]
        },
        {
            "mesh" : 6,
            "name" : "Cube.010",
            "rotation" : [
                0,
                0,
                -0.7071067690849304,
                0.7071067690849304
            ],
            "scale" : [
                0.19313624501228333,
                0.2908279299736023,
                0.26499637961387634
            ],
            "translation" : [
                -0.0011047720909118652,
                -1.8980834484100342,
                1.9972590208053589
            ]
        },
        {
            "mesh" : 7,
            "name" : "Cube.001",
            "rotation" : [
                0.7071067690849304,
                0.7071067690849304,
                0,
                -1.152023116901546e-07
            ],
            "scale" : [
                0.25,
                0.25,
                0.75
            ],
            "translation" : [
                0.3988953232765198,
                1.6427571773529053,
                0.7543439865112305
            ]
        },
        {
            "mesh" : 8,
            "name" : "Cube.002",
            "rotation" : [
                0.7071067690849304,
                -0.7071067690849304,
                0,
                -1.152023116901546e-07
            ],
            "scale" : [
                0.25,
                0.25,
                0.75
            ],
            "translation" : [
                -0.40110474824905396,
                -0.5800016522407532,
                0.7543439865112305
            ]
        },
        {
            "mesh" : 9,
            "name" : "Cube.003",
            "rotation" : [
                0.7071067690849304,
                0.7071067690849304,
                0,
                -1.152023116901546e-07
            ],
            "scale" : [
                0.25,
                0.25,
                0.75
            ],
            "translation" : [
                0.3988952338695526,
                -0.580001711845398,
                0.7543439865112305
            ]
        },
        {
            "mesh" : 10,
            "name" : "Cube.008",
            "rotation" : [
                0.7071067690849304,
                0.7071067690849304,
                0,
                -1.152023116901546e-07
            ],
            "scale" : [
                0.0717705711722374,
                0.19320091605186462,
                0.2431412637233734
            ],
            "translation" : [
                0.30801624059677124,
                -1.033713459968567,
                2.965712070465088
            ]
        }
    ],
    "materials" : [
        {
            "doubleSided" : true,
            "emissiveFactor" : [
                0,
                0,
                0
            ],
            "name" : "Material",
            "pbrMetallicRoughness" : {
                "baseColorTexture" : {
                    "index" : 0,
                    "texCoord" : 0
                },
                "metallicFactor" : 0,
                "roughnessFactor" : 0.4000000059604645
            }
        }
    ],
    "meshes" : [
        {
            "name" : "Cube.004",
            "primitives" : [
                {
                    "attributes" : {
                        "POSITION" : 0,
                        "NORMAL" : 1,
                        "TEXCOORD_0" : 2
                    },
                    "indices" : 3,
                    "material" : 0
                }
            ]
        },
        {
            "name" : "Cube.005",
            "primitives" : [
                {
                    "attributes" : {
                        "POSITION" : 4,
                        "NORMAL" : 5,
                        "TEXCOORD_0" : 6
                    },
                    "indices" : 3,
                    "material" : 0
                }
            ]
        },
        {
            "name" : "Cube.006",
            "primitives" : [
                {
                    "attributes" : {
                        "POSITION" : 7,
                        "NORMAL" : 8,
                        "TEXCOORD_0" : 9
                    },
                    "indices" : 3,
                    "material" : 0
                }
            ]
        },
        {
            "name" : "Cube.008",
            "primitives" : [
                {
                    "attributes" : {
                        "POSITION" : 10,
                        "NORMAL" : 11,
                        "TEXCOORD_0" : 12
                    },
                    "indices" : 3,
                    "material" : 0
                }
            ]
        },
        {
            "name" : "Cube.010",
            "primitives" : [
                {
                    "attributes" : {
                        "POSITION" : 13,
                        "NORMAL" : 14,
                        "TEXCOORD_0" : 15
                    },
                    "indices" : 3,
                    "material" : 0
                }
            ]
        },
        {
            "name" : "Cube.011",
            "primitives" : [
                {
                    "attributes" : {
                        "POSITION" : 16,
                        "NORMAL" : 17,
                        "TEXCOORD_0" : 18
                    },
                    "indices" : 3,
                    "material" : 0
                }
            ]
        },
        {
            "name" : "Cube.012",
            "primitives" : [
                {
                    "attributes" : {
                        "POSITION" : 19,
                        "NORMAL" : 20,
                        "TEXCOORD_0" : 21
                    },
                    "indices" : 3,
                    "material" : 0
                }
            ]
        },
        {
            "name" : "Cube.013",
            "primitives" : [
                {
                    "attributes" : {
                        "POSITION" : 22,
                        "NORMAL" : 23,
                        "TEXCOORD_0" : 24
                    },
                    "indices" : 3,
                    "material" : 0
                }
            ]
        },
        {
            "name" : "Cube.014",
            "primitives" : [
                {
                    "attributes" : {
                        "POSITION" : 25,
                        "NORMAL" : 26,
                        "TEXCOORD_0" : 27
                    },
                    "indices" : 3,
                    "material" : 0
                }
            ]
        },
        {
            "name" : "Cube.015",
            "primitives" : [
                {
                    "attributes" : {
                        "POSITION" : 28,
                        "NORMAL" : 29,
                        "TEXCOORD_0" : 30
                    },
                    "indices" : 3,
                    "material" : 0
                }
            ]
        },
        {
            "name" : "Cube.016",
            "primitives" : [
                {
                    "attributes" : {
                        "POSITION" : 31,
                        "NORMAL" : 32,
                        "TEXCOORD_0" : 33
                    },
                    "indices" : 3,
                    "material" : 0
                }
            ]
        }
    ],
    "textures" : [
        {
            "source" : 0
        }
    ],
    "images" : [
        {
            "bufferView" : 4,
            "mimeType" : "image/jpeg",
            "name" : "skin"
        }
    ],
    "accessors" : [
        {
            "bufferView" : 0,
            "componentType" : 5126,
            "count" : 24,
            "max" : [
                1,
                1,
                1
            ],
            "min" : [
                -1,
                -1,
                -1
            ],
            "type" : "VEC3"
        },
        {
            "bufferView" : 1,
            "componentType" : 5126,
            "count" : 24,
            "type" : "VEC3"
        },
        {
            "bufferView" : 2,
            "componentType" : 5126,
            "count" : 24,
            "type" : "VEC2"
        },
        {
            "bufferView" : 3,
            "componentType" : 5123,
            "count" : 36,
            "type" : "SCALAR"
        },
        {
            "bufferView" : 5,
            "componentType" : 5126,
            "count" : 24,
            "max" : [
                1,
                1,
                1
            ],
            "min" : [
                -1,
                -1,
                -1
            ],
            "type" : "VEC3"
        },
        {
            "bufferView" : 6,
            "componentType" : 5126,
            "count" : 24,
            "type" : "VEC3"
        },
        {
            "bufferView" : 7,
            "componentType" : 5126,
            "count" : 24,
            "type" : "VEC2"
        },
        {
            "bufferView" : 8,
            "componentType" : 5126,
            "count" : 24,
            "max" : [
                1,
                1,
                1
            ],
            "min" : [
                -1,
                -1,
                -1
            ],
            "type" : "VEC3"
        },
        {
            "bufferView" : 9,
            "componentType" : 5126,
            "count" : 24,
            "type" : "VEC3"
        },
        {
            "bufferView" : 10,
            "componentType" : 5126,
            "count" : 24,
            "type" : "VEC2"
        },
        {
            "bufferView" : 11,
            "componentType" : 5126,
            "count" : 24,
            "max" : [
                1,
                1,
                1
            ],
            "min" : [
                -1,
                -1,
                -1
            ],
            "type" : "VEC3"
        },
        {
            "bufferView" : 12,
            "componentType" : 5126,
            "count" : 24,
            "type" : "VEC3"
        },
        {
            "bufferView" : 13,
            "componentType" : 5126,
            "count" : 24,
            "type" : "VEC2"
        },
        {
            "bufferView" : 14,
            "componentType" : 5126,
            "count" : 24,
            "max" : [
                1,
                1,
                1
            ],
            "min" : [
                -1,
                -1,
                -1
            ],
            "type" : "VEC3"
        },
        {
            "bufferView" : 15,
            "componentType" : 5126,
            "count" : 24,
            "type" : "VEC3"
        },
        {
            "bufferView" : 16,
            "componentType" : 5126,
            "count" : 24,
            "type" : "VEC2"
        },
        {
            "bufferView" : 17,
            "componentType" : 5126,
            "count" : 24,
            "max" : [
                1,
                1,
                1
            ],
            "min" : [
                -1,
                -1,
                -1
            ],
            "type" : "VEC3"
        },
        {
            "bufferView" : 18,
            "componentType" : 5126,
            "count" : 24,
            "type" : "VEC3"
        },
        {
            "bufferView" : 19,
            "componentType" : 5126,
            "count" : 24,
            "type" : "VEC2"
        },
        {
            "bufferView" : 20,
            "componentType" : 5126,
            "count" : 24,
            "max" : [
                1,
                1,
                1
            ],
            "min" : [
                -1,
                -1,
                -1
            ],
            "type" : "VEC3"
        },
        {
            "bufferView" : 21,
            "componentType" : 5126,
            "count" : 24,
            "type" : "VEC3"
        },
        {
            "bufferView" : 22,
            "componentType" : 5126,
            "count" : 24,
            "type" : "VEC2"
        },
        {
            "bufferView" : 23,
            "componentType" : 5126,
            "count" : 24,
            "max" : [
                1,
                1,
                1
            ],
            "min" : [
                -1,
                -1,
                -1
            ],
            "type" : "VEC3"
        },
        {
            "bufferView" : 24,
            "componentType" : 5126,
            "count" : 24,
            "type" : "VEC3"
        },
        {
            "bufferView" : 25,
            "componentType" : 5126,
            "count" : 24,
            "type" : "VEC2"
        },
        {
            "bufferView" : 26,
            "componentType" : 5126,
            "count" : 24,
            "max" : [
                1,
                1,
                1
            ],
            "min" : [
                -1,
                -1,
                -1
            ],
            "type" : "VEC3"
        },
        {
            "bufferView" : 27,
            "componentType" : 5126,
            "count" : 24,
            "type" : "VEC3"
        },
        {
            "bufferView" : 28,
            "componentType" : 5126,
            "count" : 24,
            "type" : "VEC2"
        },
        {
            "bufferView" : 29,
            "componentType" : 5126,
            "count" : 24,
            "max" : [
                1,
                1,
                1
            ],
            "min" : [
                -1,
                -1,
                -1
            ],
            "type" : "VEC3"
        },
        {
            "bufferView" : 30,
            "componentType" : 5126,
            "count" : 24,
            "type" : "VEC3"
        },
        {
            "bufferView" : 31,
            "componentType" : 5126,
            "count" : 24,
            "type" : "VEC2"
        },
        {
            "bufferView" : 32,
            "componentType" : 5126,
            "count" : 24,
            "max" : [
                1,
                1,
                1
            ],
            "min" : [
                -1,
                -1,
                -1
            ],
            "type" : "VEC3"
        },
        {
            "bufferView" : 33,
            "componentType" : 5126,
            "count" : 24,
            "type" : "VEC3"
        },
        {
            "bufferView" : 34,
            "componentType" : 5126,
            "count" : 24,
            "type" : "VEC2"
        }
    ],
    "bufferViews" : [
        {
            "buffer" : 0,
            "byteLength" : 288,
            "byteOffset" : 0
        },
        {
            "buffer" : 0,
            "byteLength" : 288,
            "byteOffset" : 288
        },
        {
            "buffer" : 0,
            "byteLength" : 192,
            "byteOffset" : 576
        },
        {
            "buffer" : 0,
            "byteLength" : 72,
            "byteOffset" : 768
        },
        {
            "buffer" : 0,
            "byteLength" : 27209,
            "byteOffset" : 840
        },
        {
            "buffer" : 0,
            "byteLength" : 288,
            "byteOffset" : 28052
        },
        {
            "buffer" : 0,
            "byteLength" : 288,
            "byteOffset" : 28340
        },
        {
            "buffer" : 0,
            "byteLength" : 192,
            "byteOffset" : 28628
        },
        {
            "buffer" : 0,
            "byteLength" : 288,
            "byteOffset" : 28820
        },
        {
            "buffer" : 0,
            "byteLength" : 288,
            "byteOffset" : 29108
        },
        {
            "buffer" : 0,
            "byteLength" : 192,
            "byteOffset" : 29396
        },
        {
            "buffer" : 0,
            "byteLength" : 288,
            "byteOffset" : 29588
        },
        {
            "buffer" : 0,
            "byteLength" : 288,
            "byteOffset" : 29876
        },
        {
            "buffer" : 0,
            "byteLength" : 192,
            "byteOffset" : 30164
        },
        {
            "buffer" : 0,
            "byteLength" : 288,
            "byteOffset" : 30356
        },
        {
            "buffer" : 0,
            "byteLength" : 288,
            "byteOffset" : 30644
        },
        {
            "buffer" : 0,
            "byteLength" : 192,
            "byteOffset" : 30932
        },
        {
            "buffer" : 0,
            "byteLength" : 288,
            "byteOffset" : 31124
        },
        {
            "buffer" : 0,
            "byteLength" : 288,
            "byteOffset" : 31412
        },
        {
            "buffer" : 0,
            "byteLength" : 192,
            "byteOffset" : 31700
        },
        {
            "buffer" : 0,
            "byteLength" : 288,
            "byteOffset" : 31892
        },
        {
            "buffer" : 0,
            "byteLength" : 288,
            "byteOffset" : 32180
        },
        {
            "buffer" : 0,
            "byteLength" : 192,
            "byteOffset" : 32468
        },
        {
            "buffer" : 0,
            "byteLength" : 288,
            "byteOffset" : 32660
        },
        {
            "buffer" : 0,
            "byteLength" : 288,
            "byteOffset" : 32948
        },
        {
            "buffer" : 0,
            "byteLength" : 192,
            "byteOffset" : 33236
        },
        {
            "buffer" : 0,
            "byteLength" : 288,
            "byteOffset" : 33428
        },
        {
            "buffer" : 0,
            "byteLength" : 288,
            "byteOffset" : 33716
        },
        {
            "buffer" : 0,
            "byteLength" : 192,
            "byteOffset" : 34004
        },
        {
            "buffer" : 0,
            "byteLength" : 288,
            "byteOffset" : 34196
        },
        {
            "buffer" : 0,
            "byteLength" : 288,
            "byteOffset" : 34484
        },
        {
            "buffer" : 0,
            "byteLength" : 192,
            "byteOffset" : 34772
        },
        {
            "buffer" : 0,
            "byteLength" : 288,
            "byteOffset" : 34964
        },
        {
            "buffer" : 0,
            "byteLength" : 288,
            "byteOffset" : 35252
        },
        {
            "buffer" : 0,
            "byteLength" : 192,
            "byteOffset" : 35540
        }
    ],
    "buffers" : [
        {
            "byteLength" : 35732,
            "uri" : "data:application/octet-stream;base64,"
        }
    ]
}
