{
    "asset" : {
        "generator" : "Khronos glTF Blender I/O v0.9.11",
        "version" : "2.0"
    },
    "scene" : 0,
    "scenes" : [
        {
            "name" : "Scene",
            "nodes" : [
                0
            ]
        }
    ],
    "nodes" : [
        {
            "mesh" : 0,
            "name" : "Wolf",
            "rotation" : [
                0,
                0,
                -0.999998927116394,
                0.0014621769078075886
            ],
            "scale" : [
                0.23255448043346405,
                0.23255448043346405,
                0.23255446553230286
            ],
            "translation" : [
                0,
                0.14733433723449707,
                2.015632390975952
            ]
        }
    ],
    "materials" : [
        {
            "doubleSided" : true,
            "name" : "Material",
            "pbrMetallicRoughness" : {
                "baseColorFactor" : [
                    0.33432453870773315,
                    0.33432453870773315,
                    0.33432453870773315,
                    1
                ],
                "metallicFactor" : 0,
                "roughnessFactor" : 0.4000000059604645
            }
        }
    ],
    "meshes" : [
        {
            "name" : "Mesh",
            "primitives" : [
                {
                    "attributes" : {
                        "POSITION" : 0,
                        "NORMAL" : 1,
                        "TEXCOORD_0" : 2
                    },
                    "indices" : 3,
                    "material" : 0
                }
            ]
        }
    ],
    "accessors" : [
        {
            "bufferView" : 0,
            "componentType" : 5126,
            "count" : 1459,
            "max" : [
                3.61358380317688,
                9.407500267028809,
                7.671356678009033
            ],
            "min" : [
                -3.61358380317688,
                -18.216838836669922,
                -8.83933162689209
            ],
            "type" : "VEC3"
        },
        {
            "bufferView" : 1,
            "componentType" : 5126,
            "count" : 1459,
            "type" : "VEC3"
        },
        {
            "bufferView" : 2,
            "componentType" : 5126,
            "count" : 1459,
            "type" : "VEC2"
        },
        {
            "bufferView" : 3,
            "componentType" : 5123,
            "count" : 2184,
            "type" : "SCALAR"
        }
    ],
    "bufferViews" : [
        {
            "buffer" : 0,
            "byteLength" : 17508,
            "byteOffset" : 0
        },
        {
            "buffer" : 0,
            "byteLength" : 17508,
            "byteOffset" : 17508
        },
        {
            "buffer" : 0,
            "byteLength" : 11672,
            "byteOffset" : 35016
        },
        {
            "buffer" : 0,
            "byteLength" : 4368,
            "byteOffset" : 46688
        }
    ],
    "buffers" : [
        {
            "byteLength" : 51056,
            "uri" : "data:application/octet-stream;base64,"
        }
    ]
}
