{
    "asset" : {
        "generator" : "Khronos glTF Blender I/O v0.9.11",
        "version" : "2.0"
    },
    "scene" : 0,
    "scenes" : [
        {
            "name" : "Scene",
            "nodes" : [
                0
            ]
        }
    ],
    "nodes" : [
        {
            "mesh" : 0,
            "name" : "Archer",
            "rotation" : [
                0.7071068286895752,
                0,
                0,
                0.7071067094802856
            ]
        }
    ],
    "materials" : [
        {
            "doubleSided" : true,
            "name" : "Material.008",
            "pbrMetallicRoughness" : {
                "baseColorFactor" : [
                    0.800000011920929,
                    0.5027260184288025,
                    0.5027260184288025,
                    1
                ],
                "metallicFactor" : 0,
                "roughnessFactor" : 0.5
            }
        },
        {
            "doubleSided" : true,
            "name" : "Material.007",
            "pbrMetallicRoughness" : {
                "baseColorFactor" : [
                    0.2224864512681961,
                    0.4479791224002838,
                    0.09227608144283295,
                    1
                ],
                "metallicFactor" : 0,
                "roughnessFactor" : 0.5
            }
        },
        {
            "doubleSided" : true,
            "name" : "Material.002",
            "pbrMetallicRoughness" : {
                "baseColorFactor" : [
                    0.26676133275032043,
                    0.09811028838157654,
                    0,
                    1
                ],
                "metallicFactor" : 0,
                "roughnessFactor" : 0.5
            }
        },
        {
            "doubleSided" : true,
            "name" : "Material.009",
            "pbrMetallicRoughness" : {
                "baseColorFactor" : [
                    0.06071966513991356,
                    0.03545514866709709,
                    0.02498648688197136,
                    1
                ],
                "metallicFactor" : 0,
                "roughnessFactor" : 0.5
            }
        }
    ],
    "meshes" : [
        {
            "name" : "Mesh",
            "primitives" : [
                {
                    "attributes" : {
                        "POSITION" : 0,
                        "NORMAL" : 1,
                        "TEXCOORD_0" : 2,
                        "TEXCOORD_1" : 3,
                        "TEXCOORD_2" : 4
                    },
                    "indices" : 5,
                    "material" : 0
                },
                {
                    "attributes" : {
                        "POSITION" : 6,
                        "NORMAL" : 7,
                        "TEXCOORD_0" : 8,
                        "TEXCOORD_1" : 9,
                        "TEXCOORD_2" : 10
                    },
                    "indices" : 11,
                    "material" : 1
                },
                {
                    "attributes" : {
                        "POSITION" : 12,
                        "NORMAL" : 13,
                        "TEXCOORD_0" : 14,
                        "TEXCOORD_1" : 15,
                        "TEXCOORD_2" : 16
                    },
                    "indices" : 17,
                    "material" : 2
                },
                {
                    "attributes" : {
                        "POSITION" : 18,
                        "NORMAL" : 19,
                        "TEXCOORD_0" : 20,
                        "TEXCOORD_1" : 21,
                        "TEXCOORD_2" : 22
                    },
                    "indices" : 23,
                    "material" : 3
                }
            ]
        }
    ],
    "accessors" : [
        {
            "bufferView" : 0,
            "componentType" : 5126,
            "count" : 380,
            "max" : [
                1.118433952331543,
                3.9002673625946045,
                1.1321300268173218
            ],
            "min" : [
                -1.064804196357727,
                0.49144044518470764,
                -0.6638619899749756
            ],
            "type" : "VEC3"
        },
        {
            "bufferView" : 1,
            "componentType" : 5126,
            "count" : 380,
            "type" : "VEC3"
        },
        {
            "bufferView" : 2,
            "componentType" : 5126,
            "count" : 380,
            "type" : "VEC2"
        },
        {
            "bufferView" : 3,
            "componentType" : 5126,
            "count" : 380,
            "type" : "VEC2"
        },
        {
            "bufferView" : 4,
            "componentType" : 5126,
            "count" : 380,
            "type" : "VEC2"
        },
        {
            "bufferView" : 5,
            "componentType" : 5123,
            "count" : 612,
            "type" : "SCALAR"
        },
        {
            "bufferView" : 6,
            "componentType" : 5126,
            "count" : 172,
            "max" : [
                1.673970103263855,
                2.2034831047058105,
                0.5482686758041382
            ],
            "min" : [
                -1.673970103263855,
                0.49313482642173767,
                -0.4369760751724243
            ],
            "type" : "VEC3"
        },
        {
            "bufferView" : 7,
            "componentType" : 5126,
            "count" : 172,
            "type" : "VEC3"
        },
        {
            "bufferView" : 8,
            "componentType" : 5126,
            "count" : 172,
            "type" : "VEC2"
        },
        {
            "bufferView" : 9,
            "componentType" : 5126,
            "count" : 172,
            "type" : "VEC2"
        },
        {
            "bufferView" : 10,
            "componentType" : 5126,
            "count" : 172,
            "type" : "VEC2"
        },
        {
            "bufferView" : 11,
            "componentType" : 5123,
            "count" : 264,
            "type" : "SCALAR"
        },
        {
            "bufferView" : 12,
            "componentType" : 5126,
            "count" : 854,
            "max" : [
                2.0378172397613525,
                2.0962748527526855,
                0.5577059984207153
            ],
            "min" : [
                -2.0378172397613525,
                0.0028063724748790264,
                -0.45898300409317017
            ],
            "type" : "VEC3"
        },
        {
            "bufferView" : 13,
            "componentType" : 5126,
            "count" : 854,
            "type" : "VEC3"
        },
        {
            "bufferView" : 14,
            "componentType" : 5126,
            "count" : 854,
            "type" : "VEC2"
        },
        {
            "bufferView" : 15,
            "componentType" : 5126,
            "count" : 854,
            "type" : "VEC2"
        },
        {
            "bufferView" : 16,
            "componentType" : 5126,
            "count" : 854,
            "type" : "VEC2"
        },
        {
            "bufferView" : 17,
            "componentType" : 5123,
            "count" : 1422,
            "type" : "SCALAR"
        },
        {
            "bufferView" : 18,
            "componentType" : 5126,
            "count" : 195,
            "max" : [
                0.8901190757751465,
                4.338809490203857,
                1.1267149448394775
            ],
            "min" : [
                -0.9257173538208008,
                2.0295498371124268,
                -0.8701300024986267
            ],
            "type" : "VEC3"
        },
        {
            "bufferView" : 19,
            "componentType" : 5126,
            "count" : 195,
            "type" : "VEC3"
        },
        {
            "bufferView" : 20,
            "componentType" : 5126,
            "count" : 195,
            "type" : "VEC2"
        },
        {
            "bufferView" : 21,
            "componentType" : 5126,
            "count" : 195,
            "type" : "VEC2"
        },
        {
            "bufferView" : 22,
            "componentType" : 5126,
            "count" : 195,
            "type" : "VEC2"
        },
        {
            "bufferView" : 23,
            "componentType" : 5123,
            "count" : 390,
            "type" : "SCALAR"
        }
    ],
    "bufferViews" : [
        {
            "buffer" : 0,
            "byteLength" : 4560,
            "byteOffset" : 0
        },
        {
            "buffer" : 0,
            "byteLength" : 4560,
            "byteOffset" : 4560
        },
        {
            "buffer" : 0,
            "byteLength" : 3040,
            "byteOffset" : 9120
        },
        {
            "buffer" : 0,
            "byteLength" : 3040,
            "byteOffset" : 12160
        },
        {
            "buffer" : 0,
            "byteLength" : 3040,
            "byteOffset" : 15200
        },
        {
            "buffer" : 0,
            "byteLength" : 1224,
            "byteOffset" : 18240
        },
        {
            "buffer" : 0,
            "byteLength" : 2064,
            "byteOffset" : 19464
        },
        {
            "buffer" : 0,
            "byteLength" : 2064,
            "byteOffset" : 21528
        },
        {
            "buffer" : 0,
            "byteLength" : 1376,
            "byteOffset" : 23592
        },
        {
            "buffer" : 0,
            "byteLength" : 1376,
            "byteOffset" : 24968
        },
        {
            "buffer" : 0,
            "byteLength" : 1376,
            "byteOffset" : 26344
        },
        {
            "buffer" : 0,
            "byteLength" : 528,
            "byteOffset" : 27720
        },
        {
            "buffer" : 0,
            "byteLength" : 10248,
            "byteOffset" : 28248
        },
        {
            "buffer" : 0,
            "byteLength" : 10248,
            "byteOffset" : 38496
        },
        {
            "buffer" : 0,
            "byteLength" : 6832,
            "byteOffset" : 48744
        },
        {
            "buffer" : 0,
            "byteLength" : 6832,
            "byteOffset" : 55576
        },
        {
            "buffer" : 0,
            "byteLength" : 6832,
            "byteOffset" : 62408
        },
        {
            "buffer" : 0,
            "byteLength" : 2844,
            "byteOffset" : 69240
        },
        {
            "buffer" : 0,
            "byteLength" : 2340,
            "byteOffset" : 72084
        },
        {
            "buffer" : 0,
            "byteLength" : 2340,
            "byteOffset" : 74424
        },
        {
            "buffer" : 0,
            "byteLength" : 1560,
            "byteOffset" : 76764
        },
        {
            "buffer" : 0,
            "byteLength" : 1560,
            "byteOffset" : 78324
        },
        {
            "buffer" : 0,
            "byteLength" : 1560,
            "byteOffset" : 79884
        },
        {
            "buffer" : 0,
            "byteLength" : 780,
            "byteOffset" : 81444
        }
    ],
    "buffers" : [
        {
            "byteLength" : 82224,
            "uri" : "data:application/octet-stream;base64,"
        }
    ]
}
