{
    "asset" : {
        "generator" : "Khronos glTF Blender I/O v1.2.75",
        "version" : "2.0"
    },
    "scene" : 0,
    "scenes" : [
        {
            "name" : "Scene",
            "nodes" : [
                23
            ]
        }
    ],
    "nodes" : [
        {
            "name" : "Head",
            "translation" : [
                0,
                0.7925622463226318,
                0
            ]
        },
        {
            "name" : "Hand.L",
            "rotation" : [
                0,
                0,
                -3.6484816866471796e-30,
                1
            ],
            "translation" : [
                0,
                0.7115705013275146,
                0
            ]
        },
        {
            "children" : [
                1
            ],
            "name" : "LowerArm.L",
            "rotation" : [
                0,
                0,
                -3.6484816866471796e-30,
                1
            ],
            "translation" : [
                0,
                0.7578513622283936,
                0
            ]
        },
        {
            "children" : [
                2
            ],
            "name" : "UpperArm.L",
            "rotation" : [
                4.636293482462861e-08,
                -1.5454311608209537e-08,
                0.7071068286895752,
                0.7071068286895752
            ],
            "translation" : [
                0,
                1.006611943244934,
                0
            ]
        },
        {
            "children" : [
                3
            ],
            "name" : "Shoulder.L",
            "rotation" : [
                1.5454311608209537e-08,
                -1.5454311608209537e-08,
                0.7071068286895752,
                0.7071068286895752
            ],
            "translation" : [
                0,
                0.7925622463226318,
                0
            ]
        },
        {
            "name" : "Hand.R",
            "rotation" : [
                0,
                0,
                1.0846837446788912e-29,
                1
            ],
            "translation" : [
                0,
                0.7000002264976501,
                0
            ]
        },
        {
            "children" : [
                5
            ],
            "name" : "LowerArm.R",
            "rotation" : [
                0,
                0,
                1.0846837446788912e-29,
                1
            ],
            "translation" : [
                0,
                0.7694215774536133,
                0
            ]
        },
        {
            "children" : [
                6
            ],
            "name" : "UpperArm.R",
            "rotation" : [
                -5.760116650321834e-08,
                -4.216080373709019e-09,
                -0.7071068286895752,
                0.7071068286895752
            ],
            "translation" : [
                0,
                1.012397050857544,
                0
            ]
        },
        {
            "children" : [
                7
            ],
            "name" : "Shoulder.R",
            "rotation" : [
                -2.6692543286799264e-08,
                -2.6692543286799264e-08,
                -0.7071068286895752,
                0.7071068286895752
            ],
            "translation" : [
                0,
                0.7925622463226318,
                0
            ]
        },
        {
            "children" : [
                0,
                4,
                8
            ],
            "name" : "UpperBody",
            "translation" : [
                0,
                1,
                0
            ]
        },
        {
            "children" : [
                9
            ],
            "name" : "LowerBody",
            "rotation" : [
                0.7071068286895752,
                0,
                0,
                0.7071068286895752
            ]
        },
        {
            "name" : "LowerLeg.L",
            "rotation" : [
                1.9106858886811786e-15,
                1.5828945142473683e-15,
                4.3711395392165286e-08,
                1
            ],
            "translation" : [
                3.5969403011648637e-09,
                1,
                -1.6391101258401986e-13
            ]
        },
        {
            "children" : [
                11
            ],
            "name" : "UpperLeg.L",
            "rotation" : [
                -0.4999999701976776,
                -0.5000000596046448,
                0.5,
                0.5
            ],
            "scale" : [
                1,
                0.9999999403953552,
                1
            ],
            "translation" : [
                -0.3499999940395355,
                2.2911484620635747e-07,
                -0.012396812438964844
            ]
        },
        {
            "name" : "LowerLeg.R",
            "rotation" : [
                0.007230584509670734,
                -0.007230584509670734,
                5.232753392192535e-05,
                0.999947726726532
            ],
            "scale" : [
                1,
                1,
                0.9999999403953552
            ],
            "translation" : [
                -2.909530394390458e-10,
                1.000104546546936,
                1.2961283601953255e-08
            ]
        },
        {
            "children" : [
                13
            ],
            "name" : "UpperLeg.R",
            "rotation" : [
                -0.5071782469749451,
                -0.5,
                0.4927171468734741,
                0.5
            ],
            "scale" : [
                0.9999999403953552,
                0.9999999403953552,
                1
            ],
            "translation" : [
                0.335537314414978,
                2.2911484620635747e-07,
                -0.012396812438964844
            ]
        },
        {
            "mesh" : 0,
            "name" : "Cube",
            "skin" : 0
        },
        {
            "mesh" : 1,
            "name" : "Cube.001",
            "skin" : 0
        },
        {
            "mesh" : 2,
            "name" : "Cube.002",
            "skin" : 0
        },
        {
            "mesh" : 3,
            "name" : "Cube.003",
            "skin" : 0
        },
        {
            "mesh" : 4,
            "name" : "Cube.004",
            "skin" : 0
        },
        {
            "mesh" : 5,
            "name" : "Cube.005",
            "skin" : 0
        },
        {
            "name" : "main",
            "rotation" : [
                -0.5,
                0.5,
                -0.4999999701976776,
                0.4999999701976776
            ],
            "scale" : [
                0.5586405396461487,
                0.5586405396461487,
                0.5586406588554382
            ],
            "translation" : [
                -1.006611943244934,
                0,
                -0.006611347198486328
            ]
        },
        {
            "name" : "off",
            "scale" : [
                0.5586405396461487,
                0.5586405396461487,
                0.5586405396461487
            ],
            "translation" : [
                1.012397050857544,
                0,
                -0.0008263587951660156
            ]
        },
        {
            "children" : [
                15,
                16,
                17,
                18,
                19,
                20,
                21,
                22,
                10,
                12,
                14
            ],
            "name" : "Armature",
            "scale" : [
                1.476761817932129,
                1.476761817932129,
                1.476761817932129
            ],
            "translation" : [
                0,
                0,
                3.015328884124756
            ]
        }
    ],
    "materials" : [
        {
            "doubleSided" : true,
            "emissiveFactor" : [
                0,
                0,
                0
            ],
            "name" : "Skin.001",
            "pbrMetallicRoughness" : {
                "baseColorTexture" : {
                    "index" : 0,
                    "texCoord" : 0
                },
                "metallicFactor" : 0,
                "roughnessFactor" : 0.5
            }
        }
    ],
    "meshes" : [
        {
            "name" : "Cube",
            "primitives" : [
                {
                    "attributes" : {
                        "POSITION" : 0,
                        "NORMAL" : 1,
                        "TEXCOORD_0" : 2,
                        "JOINTS_0" : 3,
                        "WEIGHTS_0" : 4
                    },
                    "indices" : 5,
                    "material" : 0
                }
            ]
        },
        {
            "name" : "Cube.002",
            "primitives" : [
                {
                    "attributes" : {
                        "POSITION" : 7,
                        "NORMAL" : 8,
                        "TEXCOORD_0" : 9,
                        "COLOR_0" : 10,
                        "JOINTS_0" : 11,
                        "WEIGHTS_0" : 12
                    },
                    "indices" : 13,
                    "material" : 0
                }
            ]
        },
        {
            "name" : "Cube.003",
            "primitives" : [
                {
                    "attributes" : {
                        "POSITION" : 14,
                        "NORMAL" : 15,
                        "TEXCOORD_0" : 16,
                        "JOINTS_0" : 17,
                        "WEIGHTS_0" : 18
                    },
                    "indices" : 19,
                    "material" : 0
                }
            ]
        },
        {
            "name" : "Cube.004",
            "primitives" : [
                {
                    "attributes" : {
                        "POSITION" : 20,
                        "NORMAL" : 21,
                        "TEXCOORD_0" : 22,
                        "JOINTS_0" : 23,
                        "WEIGHTS_0" : 24
                    },
                    "indices" : 25,
                    "material" : 0
                }
            ]
        },
        {
            "name" : "Cube.008",
            "primitives" : [
                {
                    "attributes" : {
                        "POSITION" : 26,
                        "NORMAL" : 27,
                        "TEXCOORD_0" : 28,
                        "JOINTS_0" : 29,
                        "WEIGHTS_0" : 30
                    },
                    "indices" : 31,
                    "material" : 0
                }
            ]
        },
        {
            "name" : "Cube.007",
            "primitives" : [
                {
                    "attributes" : {
                        "POSITION" : 32,
                        "NORMAL" : 33,
                        "TEXCOORD_0" : 34,
                        "JOINTS_0" : 35,
                        "WEIGHTS_0" : 36
                    },
                    "indices" : 37,
                    "material" : 0
                }
            ]
        }
    ],
    "textures" : [
        {
            "sampler" : 0,
            "source" : 0
        }
    ],
    "images" : [
        {
            "bufferView" : 6,
            "mimeType" : "image/png",
            "name" : "archer"
        }
    ],
    "skins" : [
        {
            "inverseBindMatrices" : 6,
            "joints" : [
                10,
                9,
                0,
                4,
                3,
                2,
                1,
                8,
                7,
                6,
                5,
                12,
                11,
                14,
                13
            ],
            "name" : "Armature"
        }
    ],
    "accessors" : [
        {
            "bufferView" : 0,
            "componentType" : 5126,
            "count" : 264,
            "max" : [
                1,
                0.5000000596046448,
                6.000000476837158
            ],
            "min" : [
                -1,
                -0.5000000596046448,
                3.000000476837158
            ],
            "type" : "VEC3"
        },
        {
            "bufferView" : 1,
            "componentType" : 5126,
            "count" : 264,
            "type" : "VEC3"
        },
        {
            "bufferView" : 2,
            "componentType" : 5126,
            "count" : 264,
            "type" : "VEC2"
        },
        {
            "bufferView" : 3,
            "componentType" : 5123,
            "count" : 264,
            "type" : "VEC4"
        },
        {
            "bufferView" : 4,
            "componentType" : 5126,
            "count" : 264,
            "type" : "VEC4"
        },
        {
            "bufferView" : 5,
            "componentType" : 5123,
            "count" : 408,
            "type" : "SCALAR"
        },
        {
            "bufferView" : 7,
            "componentType" : 5126,
            "count" : 15,
            "type" : "MAT4"
        },
        {
            "bufferView" : 8,
            "componentType" : 5126,
            "count" : 89,
            "max" : [
                1,
                1,
                8
            ],
            "min" : [
                -1,
                -1,
                6
            ],
            "type" : "VEC3"
        },
        {
            "bufferView" : 9,
            "componentType" : 5126,
            "count" : 89,
            "type" : "VEC3"
        },
        {
            "bufferView" : 10,
            "componentType" : 5126,
            "count" : 89,
            "type" : "VEC2"
        },
        {
            "bufferView" : 11,
            "componentType" : 5126,
            "count" : 89,
            "type" : "VEC4"
        },
        {
            "bufferView" : 12,
            "componentType" : 5123,
            "count" : 89,
            "type" : "VEC4"
        },
        {
            "bufferView" : 13,
            "componentType" : 5126,
            "count" : 89,
            "type" : "VEC4"
        },
        {
            "bufferView" : 14,
            "componentType" : 5123,
            "count" : 144,
            "type" : "SCALAR"
        },
        {
            "bufferView" : 15,
            "componentType" : 5126,
            "count" : 186,
            "max" : [
                2,
                0.5,
                6
            ],
            "min" : [
                1,
                -0.5,
                3
            ],
            "type" : "VEC3"
        },
        {
            "bufferView" : 16,
            "componentType" : 5126,
            "count" : 186,
            "type" : "VEC3"
        },
        {
            "bufferView" : 17,
            "componentType" : 5126,
            "count" : 186,
            "type" : "VEC2"
        },
        {
            "bufferView" : 18,
            "componentType" : 5123,
            "count" : 186,
            "type" : "VEC4"
        },
        {
            "bufferView" : 19,
            "componentType" : 5126,
            "count" : 186,
            "type" : "VEC4"
        },
        {
            "bufferView" : 20,
            "componentType" : 5123,
            "count" : 336,
            "type" : "SCALAR"
        },
        {
            "bufferView" : 21,
            "componentType" : 5126,
            "count" : 203,
            "max" : [
                1,
                0.5,
                3.000000476837158
            ],
            "min" : [
                -2.1855694143368964e-08,
                -0.5,
                4.76837158203125e-07
            ],
            "type" : "VEC3"
        },
        {
            "bufferView" : 22,
            "componentType" : 5126,
            "count" : 203,
            "type" : "VEC3"
        },
        {
            "bufferView" : 23,
            "componentType" : 5126,
            "count" : 203,
            "type" : "VEC2"
        },
        {
            "bufferView" : 24,
            "componentType" : 5123,
            "count" : 203,
            "type" : "VEC4"
        },
        {
            "bufferView" : 25,
            "componentType" : 5126,
            "count" : 203,
            "type" : "VEC4"
        },
        {
            "bufferView" : 26,
            "componentType" : 5123,
            "count" : 336,
            "type" : "SCALAR"
        },
        {
            "bufferView" : 27,
            "componentType" : 5126,
            "count" : 188,
            "max" : [
                -1,
                0.4999999701976776,
                6.00795316696167
            ],
            "min" : [
                -2,
                -0.5000000596046448,
                3.00795316696167
            ],
            "type" : "VEC3"
        },
        {
            "bufferView" : 28,
            "componentType" : 5126,
            "count" : 188,
            "type" : "VEC3"
        },
        {
            "bufferView" : 29,
            "componentType" : 5126,
            "count" : 188,
            "type" : "VEC2"
        },
        {
            "bufferView" : 30,
            "componentType" : 5123,
            "count" : 188,
            "type" : "VEC4"
        },
        {
            "bufferView" : 31,
            "componentType" : 5126,
            "count" : 188,
            "type" : "VEC4"
        },
        {
            "bufferView" : 32,
            "componentType" : 5123,
            "count" : 336,
            "type" : "SCALAR"
        },
        {
            "bufferView" : 33,
            "componentType" : 5126,
            "count" : 206,
            "max" : [
                2.1855694143368964e-08,
                0.5,
                3.000000476837158
            ],
            "min" : [
                -1,
                -0.5,
                4.76837158203125e-07
            ],
            "type" : "VEC3"
        },
        {
            "bufferView" : 34,
            "componentType" : 5126,
            "count" : 206,
            "type" : "VEC3"
        },
        {
            "bufferView" : 35,
            "componentType" : 5126,
            "count" : 206,
            "type" : "VEC2"
        },
        {
            "bufferView" : 36,
            "componentType" : 5123,
            "count" : 206,
            "type" : "VEC4"
        },
        {
            "bufferView" : 37,
            "componentType" : 5126,
            "count" : 206,
            "type" : "VEC4"
        },
        {
            "bufferView" : 38,
            "componentType" : 5123,
            "count" : 336,
            "type" : "SCALAR"
        }
    ],
    "bufferViews" : [
        {
            "buffer" : 0,
            "byteLength" : 3168,
            "byteOffset" : 0
        },
        {
            "buffer" : 0,
            "byteLength" : 3168,
            "byteOffset" : 3168
        },
        {
            "buffer" : 0,
            "byteLength" : 2112,
            "byteOffset" : 6336
        },
        {
            "buffer" : 0,
            "byteLength" : 2112,
            "byteOffset" : 8448
        },
        {
            "buffer" : 0,
            "byteLength" : 4224,
            "byteOffset" : 10560
        },
        {
            "buffer" : 0,
            "byteLength" : 816,
            "byteOffset" : 14784
        },
        {
            "buffer" : 0,
            "byteLength" : 4937,
            "byteOffset" : 15600
        },
        {
            "buffer" : 0,
            "byteLength" : 960,
            "byteOffset" : 20540
        },
        {
            "buffer" : 0,
            "byteLength" : 1068,
            "byteOffset" : 21500
        },
        {
            "buffer" : 0,
            "byteLength" : 1068,
            "byteOffset" : 22568
        },
        {
            "buffer" : 0,
            "byteLength" : 712,
            "byteOffset" : 23636
        },
        {
            "buffer" : 0,
            "byteLength" : 1424,
            "byteOffset" : 24348
        },
        {
            "buffer" : 0,
            "byteLength" : 712,
            "byteOffset" : 25772
        },
        {
            "buffer" : 0,
            "byteLength" : 1424,
            "byteOffset" : 26484
        },
        {
            "buffer" : 0,
            "byteLength" : 288,
            "byteOffset" : 27908
        },
        {
            "buffer" : 0,
            "byteLength" : 2232,
            "byteOffset" : 28196
        },
        {
            "buffer" : 0,
            "byteLength" : 2232,
            "byteOffset" : 30428
        },
        {
            "buffer" : 0,
            "byteLength" : 1488,
            "byteOffset" : 32660
        },
        {
            "buffer" : 0,
            "byteLength" : 1488,
            "byteOffset" : 34148
        },
        {
            "buffer" : 0,
            "byteLength" : 2976,
            "byteOffset" : 35636
        },
        {
            "buffer" : 0,
            "byteLength" : 672,
            "byteOffset" : 38612
        },
        {
            "buffer" : 0,
            "byteLength" : 2436,
            "byteOffset" : 39284
        },
        {
            "buffer" : 0,
            "byteLength" : 2436,
            "byteOffset" : 41720
        },
        {
            "buffer" : 0,
            "byteLength" : 1624,
            "byteOffset" : 44156
        },
        {
            "buffer" : 0,
            "byteLength" : 1624,
            "byteOffset" : 45780
        },
        {
            "buffer" : 0,
            "byteLength" : 3248,
            "byteOffset" : 47404
        },
        {
            "buffer" : 0,
            "byteLength" : 672,
            "byteOffset" : 50652
        },
        {
            "buffer" : 0,
            "byteLength" : 2256,
            "byteOffset" : 51324
        },
        {
            "buffer" : 0,
            "byteLength" : 2256,
            "byteOffset" : 53580
        },
        {
            "buffer" : 0,
            "byteLength" : 1504,
            "byteOffset" : 55836
        },
        {
            "buffer" : 0,
            "byteLength" : 1504,
            "byteOffset" : 57340
        },
        {
            "buffer" : 0,
            "byteLength" : 3008,
            "byteOffset" : 58844
        },
        {
            "buffer" : 0,
            "byteLength" : 672,
            "byteOffset" : 61852
        },
        {
            "buffer" : 0,
            "byteLength" : 2472,
            "byteOffset" : 62524
        },
        {
            "buffer" : 0,
            "byteLength" : 2472,
            "byteOffset" : 64996
        },
        {
            "buffer" : 0,
            "byteLength" : 1648,
            "byteOffset" : 67468
        },
        {
            "buffer" : 0,
            "byteLength" : 1648,
            "byteOffset" : 69116
        },
        {
            "buffer" : 0,
            "byteLength" : 3296,
            "byteOffset" : 70764
        },
        {
            "buffer" : 0,
            "byteLength" : 672,
            "byteOffset" : 74060
        }
    ],
    "samplers" : [
        {
            "magFilter" : 9728,
            "minFilter" : 9984
        }
    ],
    "buffers" : [
        {
            "byteLength" : 74732,
            "uri" : "data:application/octet-stream;base64,"
        }
    ]
}
