{
    "asset" : {
        "generator" : "Khronos glTF Blender I/O v0.9.11",
        "version" : "2.0"
    },
    "scene" : 0,
    "scenes" : [
        {
            "name" : "Scene",
            "nodes" : [
                0
            ]
        }
    ],
    "nodes" : [
        {
            "mesh" : 0,
            "name" : "Cube.001",
            "rotation" : [
                0.7071068286895752,
                0,
                0,
                0.7071067094802856
            ]
        }
    ],
    "materials" : [
        {
            "doubleSided" : true,
            "name" : "Material.001",
            "pbrMetallicRoughness" : {
                "baseColorFactor" : [
                    0.2890324890613556,
                    0.457531213760376,
                    0.08076161891222,
                    1
                ],
                "metallicFactor" : 0,
                "roughnessFactor" : 0.5
            }
        },
        {
            "doubleSided" : true,
            "name" : "Material.003",
            "pbrMetallicRoughness" : {
                "baseColorFactor" : [
                    0.25294288992881775,
                    0.12736381590366364,
                    0.06628213077783585,
                    1
                ],
                "metallicFactor" : 0,
                "roughnessFactor" : 0.5
            }
        },
        {
            "doubleSided" : true,
            "name" : "Material.004",
            "pbrMetallicRoughness" : {
                "baseColorFactor" : [
                    0.1959879994392395,
                    0.1237260028719902,
                    0,
                    1
                ],
                "metallicFactor" : 0,
                "roughnessFactor" : 0.5
            }
        },
        {
            "doubleSided" : true,
            "name" : "Material.005",
            "pbrMetallicRoughness" : {
                "baseColorFactor" : [
                    0.042027655988931656,
                    0.01774672418832779,
                    0,
                    1
                ],
                "metallicFactor" : 0,
                "roughnessFactor" : 0.5
            }
        }
    ],
    "meshes" : [
        {
            "name" : "Cube.001",
            "primitives" : [
                {
                    "attributes" : {
                        "POSITION" : 0,
                        "NORMAL" : 1,
                        "TEXCOORD_0" : 2
                    },
                    "indices" : 3,
                    "material" : 0
                },
                {
                    "attributes" : {
                        "POSITION" : 4,
                        "NORMAL" : 5,
                        "TEXCOORD_0" : 6
                    },
                    "indices" : 7,
                    "material" : 1
                },
                {
                    "attributes" : {
                        "POSITION" : 8,
                        "NORMAL" : 9,
                        "TEXCOORD_0" : 10
                    },
                    "indices" : 11,
                    "material" : 2
                },
                {
                    "attributes" : {
                        "POSITION" : 12,
                        "NORMAL" : 13,
                        "TEXCOORD_0" : 14
                    },
                    "indices" : 15,
                    "material" : 3
                }
            ]
        }
    ],
    "accessors" : [
        {
            "bufferView" : 0,
            "componentType" : 5126,
            "count" : 483,
            "max" : [
                1.1325291395187378,
                4.041786193847656,
                1.1321300268173218
            ],
            "min" : [
                -1.083686113357544,
                0.49144044518470764,
                -0.6638619899749756
            ],
            "type" : "VEC3"
        },
        {
            "bufferView" : 1,
            "componentType" : 5126,
            "count" : 483,
            "type" : "VEC3"
        },
        {
            "bufferView" : 2,
            "componentType" : 5126,
            "count" : 483,
            "type" : "VEC2"
        },
        {
            "bufferView" : 3,
            "componentType" : 5123,
            "count" : 777,
            "type" : "SCALAR"
        },
        {
            "bufferView" : 4,
            "componentType" : 5126,
            "count" : 172,
            "max" : [
                1.673970103263855,
                2.2034831047058105,
                0.5296260118484497
            ],
            "min" : [
                -1.673970103263855,
                0.49313482642173767,
                -0.4369760751724243
            ],
            "type" : "VEC3"
        },
        {
            "bufferView" : 5,
            "componentType" : 5126,
            "count" : 172,
            "type" : "VEC3"
        },
        {
            "bufferView" : 6,
            "componentType" : 5126,
            "count" : 172,
            "type" : "VEC2"
        },
        {
            "bufferView" : 7,
            "componentType" : 5123,
            "count" : 264,
            "type" : "SCALAR"
        },
        {
            "bufferView" : 8,
            "componentType" : 5126,
            "count" : 760,
            "max" : [
                2.0378172397613525,
                2.0962748527526855,
                0.42788949608802795
            ],
            "min" : [
                -2.0378172397613525,
                0.0028063724748790264,
                -0.32366979122161865
            ],
            "type" : "VEC3"
        },
        {
            "bufferView" : 9,
            "componentType" : 5126,
            "count" : 760,
            "type" : "VEC3"
        },
        {
            "bufferView" : 10,
            "componentType" : 5126,
            "count" : 760,
            "type" : "VEC2"
        },
        {
            "bufferView" : 11,
            "componentType" : 5123,
            "count" : 1284,
            "type" : "SCALAR"
        },
        {
            "bufferView" : 12,
            "componentType" : 5126,
            "count" : 96,
            "max" : [
                0.559913694858551,
                0.9960110187530518,
                0.5577449798583984
            ],
            "min" : [
                -0.559913694858551,
                0.829774022102356,
                -0.45898300409317017
            ],
            "type" : "VEC3"
        },
        {
            "bufferView" : 13,
            "componentType" : 5126,
            "count" : 96,
            "type" : "VEC3"
        },
        {
            "bufferView" : 14,
            "componentType" : 5126,
            "count" : 96,
            "type" : "VEC2"
        },
        {
            "bufferView" : 15,
            "componentType" : 5123,
            "count" : 144,
            "type" : "SCALAR"
        }
    ],
    "bufferViews" : [
        {
            "buffer" : 0,
            "byteLength" : 5796,
            "byteOffset" : 0
        },
        {
            "buffer" : 0,
            "byteLength" : 5796,
            "byteOffset" : 5796
        },
        {
            "buffer" : 0,
            "byteLength" : 3864,
            "byteOffset" : 11592
        },
        {
            "buffer" : 0,
            "byteLength" : 1554,
            "byteOffset" : 15456
        },
        {
            "buffer" : 0,
            "byteLength" : 2064,
            "byteOffset" : 17012
        },
        {
            "buffer" : 0,
            "byteLength" : 2064,
            "byteOffset" : 19076
        },
        {
            "buffer" : 0,
            "byteLength" : 1376,
            "byteOffset" : 21140
        },
        {
            "buffer" : 0,
            "byteLength" : 528,
            "byteOffset" : 22516
        },
        {
            "buffer" : 0,
            "byteLength" : 9120,
            "byteOffset" : 23044
        },
        {
            "buffer" : 0,
            "byteLength" : 9120,
            "byteOffset" : 32164
        },
        {
            "buffer" : 0,
            "byteLength" : 6080,
            "byteOffset" : 41284
        },
        {
            "buffer" : 0,
            "byteLength" : 2568,
            "byteOffset" : 47364
        },
        {
            "buffer" : 0,
            "byteLength" : 1152,
            "byteOffset" : 49932
        },
        {
            "buffer" : 0,
            "byteLength" : 1152,
            "byteOffset" : 51084
        },
        {
            "buffer" : 0,
            "byteLength" : 768,
            "byteOffset" : 52236
        },
        {
            "buffer" : 0,
            "byteLength" : 288,
            "byteOffset" : 53004
        }
    ],
    "buffers" : [
        {
            "byteLength" : 53292,
            "uri" : "data:application/octet-stream;base64,"
        }
    ]
}
