{
    "asset" : {
        "generator" : "Khronos glTF Blender I/O v1.2.75",
        "version" : "2.0"
    },
    "scene" : 0,
    "scenes" : [
        {
            "name" : "Scene",
            "nodes" : [
                0,
                1,
                2,
                3,
                4,
                5,
                21
            ]
        }
    ],
    "nodes" : [
        {
            "mesh" : 0,
            "name" : "Cube",
            "rotation" : [
                0,
                0,
                0.7071067690849304,
                0.7071067690849304
            ],
            "translation" : [
                0,
                0,
                4.5079522132873535
            ]
        },
        {
            "mesh" : 1,
            "name" : "Cube.001",
            "translation" : [
                0,
                0,
                6.0079522132873535
            ]
        },
        {
            "mesh" : 2,
            "name" : "Cube.002",
            "rotation" : [
                0,
                0,
                0.7071067690849304,
                0.7071067690849304
            ],
            "translation" : [
                1,
                0,
                5.5079522132873535
            ]
        },
        {
            "mesh" : 3,
            "name" : "Cube.003",
            "rotation" : [
                0,
                0,
                0.7071067690849304,
                0.7071067690849304
            ],
            "translation" : [
                0.5,
                0,
                3.0079522132873535
            ]
        },
        {
            "mesh" : 4,
            "name" : "Cube.005",
            "rotation" : [
                0,
                0,
                0.7071067690849304,
                0.7071067690849304
            ],
            "scale" : [
                1,
                -1,
                1
            ],
            "translation" : [
                -0.5,
                0,
                3.0079522132873535
            ]
        },
        {
            "mesh" : 5,
            "name" : "Cube.004",
            "rotation" : [
                0,
                0,
                0.7071067690849304,
                0.7071067690849304
            ],
            "scale" : [
                1,
                -1,
                1
            ],
            "translation" : [
                -1,
                0,
                5.5079522132873535
            ]
        },
        {
            "name" : "Bone.002",
            "translation" : [
                0,
                0.7925622463226318,
                0
            ]
        },
        {
            "name" : "Bone.006",
            "rotation" : [
                0,
                0,
                -3.6484816866471796e-30,
                1
            ],
            "translation" : [
                0,
                0.7115705013275146,
                0
            ]
        },
        {
            "children" : [
                7
            ],
            "name" : "Bone.005",
            "rotation" : [
                0,
                0,
                -3.6484816866471796e-30,
                1
            ],
            "translation" : [
                0,
                0.7578513622283936,
                0
            ]
        },
        {
            "children" : [
                8
            ],
            "name" : "Bone.004",
            "rotation" : [
                4.636293482462861e-08,
                -1.5454311608209537e-08,
                0.7071068286895752,
                0.7071068286895752
            ],
            "translation" : [
                0,
                1.006611943244934,
                0
            ]
        },
        {
            "children" : [
                9
            ],
            "name" : "Bone.003",
            "rotation" : [
                1.5454311608209537e-08,
                -1.5454311608209537e-08,
                0.7071068286895752,
                0.7071068286895752
            ],
            "translation" : [
                0,
                0.7925622463226318,
                0
            ]
        },
        {
            "name" : "Bone.010",
            "rotation" : [
                0,
                0,
                1.0846837446788912e-29,
                1
            ],
            "translation" : [
                0,
                0.7000002264976501,
                0
            ]
        },
        {
            "children" : [
                11
            ],
            "name" : "Bone.009",
            "rotation" : [
                0,
                0,
                1.0846837446788912e-29,
                1
            ],
            "translation" : [
                0,
                0.7694215774536133,
                0
            ]
        },
        {
            "children" : [
                12
            ],
            "name" : "Bone.008",
            "rotation" : [
                -5.760116650321834e-08,
                -4.216080373709019e-09,
                -0.7071068286895752,
                0.7071068286895752
            ],
            "translation" : [
                0,
                1.012397050857544,
                0
            ]
        },
        {
            "children" : [
                13
            ],
            "name" : "Bone.007",
            "rotation" : [
                -2.6692543286799264e-08,
                -2.6692543286799264e-08,
                -0.7071068286895752,
                0.7071068286895752
            ],
            "translation" : [
                0,
                0.7925622463226318,
                0
            ]
        },
        {
            "children" : [
                6,
                10,
                14
            ],
            "name" : "Bone.001",
            "translation" : [
                0,
                1,
                0
            ]
        },
        {
            "children" : [
                15
            ],
            "name" : "Bone",
            "rotation" : [
                0.7071068286895752,
                0,
                0,
                0.7071068286895752
            ]
        },
        {
            "name" : "Bone.012",
            "rotation" : [
                1.9106858886811786e-15,
                1.5828945142473683e-15,
                4.3711395392165286e-08,
                1
            ],
            "translation" : [
                1.7763568394002505e-15,
                1.0000001192092896,
                -9.936496070395151e-15
            ]
        },
        {
            "children" : [
                17
            ],
            "name" : "Bone.011",
            "rotation" : [
                -0.4999999701976776,
                -0.5000000596046448,
                0.5,
                0.5
            ],
            "scale" : [
                1,
                0.9999999403953552,
                1
            ],
            "translation" : [
                -0.34132248163223267,
                2.2911484620635747e-07,
                -0.012396812438964844
            ]
        },
        {
            "name" : "Bone.014",
            "rotation" : [
                1.9106858886811786e-15,
                1.5828945142473683e-15,
                4.3711395392165286e-08,
                1
            ],
            "translation" : [
                -6.217248937900877e-15,
                1.0000001192092896,
                -9.936496070395151e-15
            ]
        },
        {
            "children" : [
                19
            ],
            "name" : "Bone.013",
            "rotation" : [
                -0.4999999701976776,
                -0.5000000596046448,
                0.5,
                0.5
            ],
            "scale" : [
                1,
                0.9999999403953552,
                1
            ],
            "translation" : [
                0.335537314414978,
                2.2911484620635747e-07,
                -0.012396812438964844
            ]
        },
        {
            "children" : [
                16,
                18,
                20
            ],
            "name" : "Armature",
            "scale" : [
                1.476761817932129,
                1.476761817932129,
                1.476761817932129
            ],
            "translation" : [
                0,
                0,
                3.015328884124756
            ]
        }
    ],
    "materials" : [
        {
            "doubleSided" : true,
            "emissiveFactor" : [
                0,
                0,
                0
            ],
            "name" : "Skin.001",
            "pbrMetallicRoughness" : {
                "baseColorTexture" : {
                    "index" : 0,
                    "texCoord" : 0
                },
                "metallicFactor" : 0,
                "roughnessFactor" : 0.5
            }
        }
    ],
    "meshes" : [
        {
            "name" : "Cube",
            "primitives" : [
                {
                    "attributes" : {
                        "POSITION" : 0,
                        "NORMAL" : 1,
                        "TEXCOORD_0" : 2
                    },
                    "indices" : 3,
                    "material" : 0
                }
            ]
        },
        {
            "name" : "Cube.002",
            "primitives" : [
                {
                    "attributes" : {
                        "POSITION" : 4,
                        "NORMAL" : 5,
                        "TEXCOORD_0" : 6,
                        "COLOR_0" : 7
                    },
                    "indices" : 8,
                    "material" : 0
                }
            ]
        },
        {
            "name" : "Cube.003",
            "primitives" : [
                {
                    "attributes" : {
                        "POSITION" : 9,
                        "NORMAL" : 10,
                        "TEXCOORD_0" : 11
                    },
                    "indices" : 12,
                    "material" : 0
                }
            ]
        },
        {
            "name" : "Cube.004",
            "primitives" : [
                {
                    "attributes" : {
                        "POSITION" : 13,
                        "NORMAL" : 14,
                        "TEXCOORD_0" : 15
                    },
                    "indices" : 16,
                    "material" : 0
                }
            ]
        },
        {
            "name" : "Cube.007",
            "primitives" : [
                {
                    "attributes" : {
                        "POSITION" : 17,
                        "NORMAL" : 18,
                        "TEXCOORD_0" : 19
                    },
                    "indices" : 16,
                    "material" : 0
                }
            ]
        },
        {
            "name" : "Cube.008",
            "primitives" : [
                {
                    "attributes" : {
                        "POSITION" : 20,
                        "NORMAL" : 21,
                        "TEXCOORD_0" : 22
                    },
                    "indices" : 12,
                    "material" : 0
                }
            ]
        }
    ],
    "textures" : [
        {
            "sampler" : 0,
            "source" : 0
        }
    ],
    "images" : [
        {
            "bufferView" : 4,
            "mimeType" : "image/png",
            "name" : "goblin"
        }
    ],
    "accessors" : [
        {
            "bufferView" : 0,
            "componentType" : 5126,
            "count" : 24,
            "max" : [
                0.5,
                1,
                1.5
            ],
            "min" : [
                -0.5,
                -1,
                -1.5
            ],
            "type" : "VEC3"
        },
        {
            "bufferView" : 1,
            "componentType" : 5126,
            "count" : 24,
            "type" : "VEC3"
        },
        {
            "bufferView" : 2,
            "componentType" : 5126,
            "count" : 24,
            "type" : "VEC2"
        },
        {
            "bufferView" : 3,
            "componentType" : 5123,
            "count" : 36,
            "type" : "SCALAR"
        },
        {
            "bufferView" : 5,
            "componentType" : 5126,
            "count" : 48,
            "max" : [
                1,
                1,
                2
            ],
            "min" : [
                -1,
                -1,
                0
            ],
            "type" : "VEC3"
        },
        {
            "bufferView" : 6,
            "componentType" : 5126,
            "count" : 48,
            "type" : "VEC3"
        },
        {
            "bufferView" : 7,
            "componentType" : 5126,
            "count" : 48,
            "type" : "VEC2"
        },
        {
            "bufferView" : 8,
            "componentType" : 5126,
            "count" : 48,
            "type" : "VEC4"
        },
        {
            "bufferView" : 9,
            "componentType" : 5123,
            "count" : 108,
            "type" : "SCALAR"
        },
        {
            "bufferView" : 10,
            "componentType" : 5126,
            "count" : 80,
            "max" : [
                0.5,
                0,
                0.49999988079071045
            ],
            "min" : [
                -0.5,
                -1,
                -2.5
            ],
            "type" : "VEC3"
        },
        {
            "bufferView" : 11,
            "componentType" : 5126,
            "count" : 80,
            "type" : "VEC3"
        },
        {
            "bufferView" : 12,
            "componentType" : 5126,
            "count" : 80,
            "type" : "VEC2"
        },
        {
            "bufferView" : 13,
            "componentType" : 5123,
            "count" : 204,
            "type" : "SCALAR"
        },
        {
            "bufferView" : 14,
            "componentType" : 5126,
            "count" : 80,
            "max" : [
                0.5,
                0.5,
                0
            ],
            "min" : [
                -0.5,
                -0.5,
                -3
            ],
            "type" : "VEC3"
        },
        {
            "bufferView" : 15,
            "componentType" : 5126,
            "count" : 80,
            "type" : "VEC3"
        },
        {
            "bufferView" : 16,
            "componentType" : 5126,
            "count" : 80,
            "type" : "VEC2"
        },
        {
            "bufferView" : 17,
            "componentType" : 5123,
            "count" : 204,
            "type" : "SCALAR"
        },
        {
            "bufferView" : 18,
            "componentType" : 5126,
            "count" : 80,
            "max" : [
                0.5,
                0.5,
                0
            ],
            "min" : [
                -0.5,
                -0.5,
                -3
            ],
            "type" : "VEC3"
        },
        {
            "bufferView" : 19,
            "componentType" : 5126,
            "count" : 80,
            "type" : "VEC3"
        },
        {
            "bufferView" : 20,
            "componentType" : 5126,
            "count" : 80,
            "type" : "VEC2"
        },
        {
            "bufferView" : 21,
            "componentType" : 5126,
            "count" : 80,
            "max" : [
                0.5,
                0,
                0.49999988079071045
            ],
            "min" : [
                -0.5,
                -1,
                -2.5
            ],
            "type" : "VEC3"
        },
        {
            "bufferView" : 22,
            "componentType" : 5126,
            "count" : 80,
            "type" : "VEC3"
        },
        {
            "bufferView" : 23,
            "componentType" : 5126,
            "count" : 80,
            "type" : "VEC2"
        }
    ],
    "bufferViews" : [
        {
            "buffer" : 0,
            "byteLength" : 288,
            "byteOffset" : 0
        },
        {
            "buffer" : 0,
            "byteLength" : 288,
            "byteOffset" : 288
        },
        {
            "buffer" : 0,
            "byteLength" : 192,
            "byteOffset" : 576
        },
        {
            "buffer" : 0,
            "byteLength" : 72,
            "byteOffset" : 768
        },
        {
            "buffer" : 0,
            "byteLength" : 4163,
            "byteOffset" : 840
        },
        {
            "buffer" : 0,
            "byteLength" : 576,
            "byteOffset" : 5004
        },
        {
            "buffer" : 0,
            "byteLength" : 576,
            "byteOffset" : 5580
        },
        {
            "buffer" : 0,
            "byteLength" : 384,
            "byteOffset" : 6156
        },
        {
            "buffer" : 0,
            "byteLength" : 768,
            "byteOffset" : 6540
        },
        {
            "buffer" : 0,
            "byteLength" : 216,
            "byteOffset" : 7308
        },
        {
            "buffer" : 0,
            "byteLength" : 960,
            "byteOffset" : 7524
        },
        {
            "buffer" : 0,
            "byteLength" : 960,
            "byteOffset" : 8484
        },
        {
            "buffer" : 0,
            "byteLength" : 640,
            "byteOffset" : 9444
        },
        {
            "buffer" : 0,
            "byteLength" : 408,
            "byteOffset" : 10084
        },
        {
            "buffer" : 0,
            "byteLength" : 960,
            "byteOffset" : 10492
        },
        {
            "buffer" : 0,
            "byteLength" : 960,
            "byteOffset" : 11452
        },
        {
            "buffer" : 0,
            "byteLength" : 640,
            "byteOffset" : 12412
        },
        {
            "buffer" : 0,
            "byteLength" : 408,
            "byteOffset" : 13052
        },
        {
            "buffer" : 0,
            "byteLength" : 960,
            "byteOffset" : 13460
        },
        {
            "buffer" : 0,
            "byteLength" : 960,
            "byteOffset" : 14420
        },
        {
            "buffer" : 0,
            "byteLength" : 640,
            "byteOffset" : 15380
        },
        {
            "buffer" : 0,
            "byteLength" : 960,
            "byteOffset" : 16020
        },
        {
            "buffer" : 0,
            "byteLength" : 960,
            "byteOffset" : 16980
        },
        {
            "buffer" : 0,
            "byteLength" : 640,
            "byteOffset" : 17940
        }
    ],
    "samplers" : [
        {
            "magFilter" : 9728,
            "minFilter" : 9984
        }
    ],
    "buffers" : [
        {
            "byteLength" : 18580,
            "uri" : "data:application/octet-stream;base64,"
        }
    ]
}
