{
    "asset" : {
        "generator" : "Khronos glTF Blender I/O v1.2.75",
        "version" : "2.0"
    },
    "scene" : 0,
    "scenes" : [
        {
            "name" : "Scene",
            "nodes" : [
                0,
                1,
                2,
                3,
                4,
                5,
                6,
                7
            ]
        }
    ],
    "nodes" : [
        {
            "mesh" : 0,
            "name" : "Cube",
            "translation" : [
                0,
                -0.11205387860536575,
                0
            ]
        },
        {
            "mesh" : 1,
            "name" : "Cube.001",
            "rotation" : [
                0,
                0,
                -0.1796143651008606,
                0.9837371110916138
            ],
            "translation" : [
                0.026087645441293716,
                -0.029288504272699356,
                0.16997553408145905
            ]
        },
        {
            "mesh" : 2,
            "name" : "Cube.002",
            "translation" : [
                0,
                0,
                0.337501585483551
            ]
        },
        {
            "mesh" : 3,
            "name" : "Cube.003",
            "rotation" : [
                0,
                0,
                0.12777350842952728,
                0.9918033480644226
            ],
            "translation" : [
                -0.019240060821175575,
                0.059653203934431076,
                0.5036544799804688
            ]
        },
        {
            "mesh" : 4,
            "name" : "Cube.004",
            "translation" : [
                0,
                0.032727502286434174,
                0.6725537180900574
            ]
        },
        {
            "mesh" : 5,
            "name" : "Cube.005",
            "translation" : [
                0.9862257838249207,
                -0.45195603370666504,
                0
            ]
        },
        {
            "mesh" : 6,
            "name" : "Cube.006",
            "rotation" : [
                0,
                0,
                -0.1796143651008606,
                0.9837371110916138
            ],
            "translation" : [
                1.0123134851455688,
                -0.35796767473220825,
                0.16997553408145905
            ]
        },
        {
            "mesh" : 7,
            "name" : "Cube.007",
            "translation" : [
                0.9862257838249207,
                -0.2893655598163605,
                0.337501585483551
            ]
        }
    ],
    "materials" : [
        {
            "doubleSided" : true,
            "emissiveFactor" : [
                0,
                0,
                0
            ],
            "name" : "Material",
            "pbrMetallicRoughness" : {
                "baseColorTexture" : {
                    "index" : 0,
                    "texCoord" : 0
                },
                "metallicFactor" : 0.30000001192092896,
                "roughnessFactor" : 0.4000000059604645
            }
        }
    ],
    "meshes" : [
        {
            "name" : "Cube",
            "primitives" : [
                {
                    "attributes" : {
                        "POSITION" : 0,
                        "NORMAL" : 1,
                        "TEXCOORD_0" : 2
                    },
                    "indices" : 3,
                    "material" : 0
                }
            ]
        },
        {
            "name" : "Cube.001",
            "primitives" : [
                {
                    "attributes" : {
                        "POSITION" : 4,
                        "NORMAL" : 5,
                        "TEXCOORD_0" : 6
                    },
                    "indices" : 3,
                    "material" : 0
                }
            ]
        },
        {
            "name" : "Cube.002",
            "primitives" : [
                {
                    "attributes" : {
                        "POSITION" : 7,
                        "NORMAL" : 8,
                        "TEXCOORD_0" : 9
                    },
                    "indices" : 3,
                    "material" : 0
                }
            ]
        },
        {
            "name" : "Cube.003",
            "primitives" : [
                {
                    "attributes" : {
                        "POSITION" : 10,
                        "NORMAL" : 11,
                        "TEXCOORD_0" : 12
                    },
                    "indices" : 3,
                    "material" : 0
                }
            ]
        },
        {
            "name" : "Cube.004",
            "primitives" : [
                {
                    "attributes" : {
                        "POSITION" : 13,
                        "NORMAL" : 14,
                        "TEXCOORD_0" : 15
                    },
                    "indices" : 3,
                    "material" : 0
                }
            ]
        },
        {
            "name" : "Cube.005",
            "primitives" : [
                {
                    "attributes" : {
                        "POSITION" : 16,
                        "NORMAL" : 17,
                        "TEXCOORD_0" : 18
                    },
                    "indices" : 3,
                    "material" : 0
                }
            ]
        },
        {
            "name" : "Cube.006",
            "primitives" : [
                {
                    "attributes" : {
                        "POSITION" : 19,
                        "NORMAL" : 20,
                        "TEXCOORD_0" : 21
                    },
                    "indices" : 3,
                    "material" : 0
                }
            ]
        },
        {
            "name" : "Cube.007",
            "primitives" : [
                {
                    "attributes" : {
                        "POSITION" : 22,
                        "NORMAL" : 23,
                        "TEXCOORD_0" : 24
                    },
                    "indices" : 3,
                    "material" : 0
                }
            ]
        }
    ],
    "textures" : [
        {
            "source" : 0
        }
    ],
    "images" : [
        {
            "bufferView" : 4,
            "mimeType" : "image/png",
            "name" : "Screenshot 2020-06-16 at 21.39.58"
        }
    ],
    "accessors" : [
        {
            "bufferView" : 0,
            "componentType" : 5126,
            "count" : 64,
            "max" : [
                0.5007984042167664,
                0.5045614242553711,
                0.08459076285362244
            ],
            "min" : [
                -0.5007984042167664,
                -0.5045614242553711,
                -0.08459076285362244
            ],
            "type" : "VEC3"
        },
        {
            "bufferView" : 1,
            "componentType" : 5126,
            "count" : 64,
            "type" : "VEC3"
        },
        {
            "bufferView" : 2,
            "componentType" : 5126,
            "count" : 64,
            "type" : "VEC2"
        },
        {
            "bufferView" : 3,
            "componentType" : 5123,
            "count" : 96,
            "type" : "SCALAR"
        },
        {
            "bufferView" : 5,
            "componentType" : 5126,
            "count" : 64,
            "max" : [
                0.5007984042167664,
                0.5045614242553711,
                0.08459076285362244
            ],
            "min" : [
                -0.5007984042167664,
                -0.5045614242553711,
                -0.08459076285362244
            ],
            "type" : "VEC3"
        },
        {
            "bufferView" : 6,
            "componentType" : 5126,
            "count" : 64,
            "type" : "VEC3"
        },
        {
            "bufferView" : 7,
            "componentType" : 5126,
            "count" : 64,
            "type" : "VEC2"
        },
        {
            "bufferView" : 8,
            "componentType" : 5126,
            "count" : 64,
            "max" : [
                0.5007984042167664,
                0.5045614242553711,
                0.08459076285362244
            ],
            "min" : [
                -0.5007984042167664,
                -0.5045614242553711,
                -0.08459076285362244
            ],
            "type" : "VEC3"
        },
        {
            "bufferView" : 9,
            "componentType" : 5126,
            "count" : 64,
            "type" : "VEC3"
        },
        {
            "bufferView" : 10,
            "componentType" : 5126,
            "count" : 64,
            "type" : "VEC2"
        },
        {
            "bufferView" : 11,
            "componentType" : 5126,
            "count" : 64,
            "max" : [
                0.5007984042167664,
                0.5045614242553711,
                0.08459076285362244
            ],
            "min" : [
                -0.5007984042167664,
                -0.5045614242553711,
                -0.08459076285362244
            ],
            "type" : "VEC3"
        },
        {
            "bufferView" : 12,
            "componentType" : 5126,
            "count" : 64,
            "type" : "VEC3"
        },
        {
            "bufferView" : 13,
            "componentType" : 5126,
            "count" : 64,
            "type" : "VEC2"
        },
        {
            "bufferView" : 14,
            "componentType" : 5126,
            "count" : 64,
            "max" : [
                0.5007984042167664,
                0.5045614242553711,
                0.08459076285362244
            ],
            "min" : [
                -0.5007984042167664,
                -0.5045614242553711,
                -0.08459076285362244
            ],
            "type" : "VEC3"
        },
        {
            "bufferView" : 15,
            "componentType" : 5126,
            "count" : 64,
            "type" : "VEC3"
        },
        {
            "bufferView" : 16,
            "componentType" : 5126,
            "count" : 64,
            "type" : "VEC2"
        },
        {
            "bufferView" : 17,
            "componentType" : 5126,
            "count" : 64,
            "max" : [
                0.5007984042167664,
                0.5045614242553711,
                0.08459076285362244
            ],
            "min" : [
                -0.5007984042167664,
                -0.5045614242553711,
                -0.08459076285362244
            ],
            "type" : "VEC3"
        },
        {
            "bufferView" : 18,
            "componentType" : 5126,
            "count" : 64,
            "type" : "VEC3"
        },
        {
            "bufferView" : 19,
            "componentType" : 5126,
            "count" : 64,
            "type" : "VEC2"
        },
        {
            "bufferView" : 20,
            "componentType" : 5126,
            "count" : 64,
            "max" : [
                0.5007984042167664,
                0.5045614242553711,
                0.08459076285362244
            ],
            "min" : [
                -0.5007984042167664,
                -0.5045614242553711,
                -0.08459076285362244
            ],
            "type" : "VEC3"
        },
        {
            "bufferView" : 21,
            "componentType" : 5126,
            "count" : 64,
            "type" : "VEC3"
        },
        {
            "bufferView" : 22,
            "componentType" : 5126,
            "count" : 64,
            "type" : "VEC2"
        },
        {
            "bufferView" : 23,
            "componentType" : 5126,
            "count" : 64,
            "max" : [
                0.5007984042167664,
                0.5045614242553711,
                0.08459076285362244
            ],
            "min" : [
                -0.5007984042167664,
                -0.5045614242553711,
                -0.08459076285362244
            ],
            "type" : "VEC3"
        },
        {
            "bufferView" : 24,
            "componentType" : 5126,
            "count" : 64,
            "type" : "VEC3"
        },
        {
            "bufferView" : 25,
            "componentType" : 5126,
            "count" : 64,
            "type" : "VEC2"
        }
    ],
    "bufferViews" : [
        {
            "buffer" : 0,
            "byteLength" : 768,
            "byteOffset" : 0
        },
        {
            "buffer" : 0,
            "byteLength" : 768,
            "byteOffset" : 768
        },
        {
            "buffer" : 0,
            "byteLength" : 512,
            "byteOffset" : 1536
        },
        {
            "buffer" : 0,
            "byteLength" : 192,
            "byteOffset" : 2048
        },
        {
            "buffer" : 0,
            "byteLength" : 200522,
            "byteOffset" : 2240
        },
        {
            "buffer" : 0,
            "byteLength" : 768,
            "byteOffset" : 202764
        },
        {
            "buffer" : 0,
            "byteLength" : 768,
            "byteOffset" : 203532
        },
        {
            "buffer" : 0,
            "byteLength" : 512,
            "byteOffset" : 204300
        },
        {
            "buffer" : 0,
            "byteLength" : 768,
            "byteOffset" : 204812
        },
        {
            "buffer" : 0,
            "byteLength" : 768,
            "byteOffset" : 205580
        },
        {
            "buffer" : 0,
            "byteLength" : 512,
            "byteOffset" : 206348
        },
        {
            "buffer" : 0,
            "byteLength" : 768,
            "byteOffset" : 206860
        },
        {
            "buffer" : 0,
            "byteLength" : 768,
            "byteOffset" : 207628
        },
        {
            "buffer" : 0,
            "byteLength" : 512,
            "byteOffset" : 208396
        },
        {
            "buffer" : 0,
            "byteLength" : 768,
            "byteOffset" : 208908
        },
        {
            "buffer" : 0,
            "byteLength" : 768,
            "byteOffset" : 209676
        },
        {
            "buffer" : 0,
            "byteLength" : 512,
            "byteOffset" : 210444
        },
        {
            "buffer" : 0,
            "byteLength" : 768,
            "byteOffset" : 210956
        },
        {
            "buffer" : 0,
            "byteLength" : 768,
            "byteOffset" : 211724
        },
        {
            "buffer" : 0,
            "byteLength" : 512,
            "byteOffset" : 212492
        },
        {
            "buffer" : 0,
            "byteLength" : 768,
            "byteOffset" : 213004
        },
        {
            "buffer" : 0,
            "byteLength" : 768,
            "byteOffset" : 213772
        },
        {
            "buffer" : 0,
            "byteLength" : 512,
            "byteOffset" : 214540
        },
        {
            "buffer" : 0,
            "byteLength" : 768,
            "byteOffset" : 215052
        },
        {
            "buffer" : 0,
            "byteLength" : 768,
            "byteOffset" : 215820
        },
        {
            "buffer" : 0,
            "byteLength" : 512,
            "byteOffset" : 216588
        }
    ],
    "buffers" : [
        {
            "byteLength" : 217100,
            "uri" : "data:application/octet-stream;base64,"
        }
    ]
}
