{
    "asset" : {
        "generator" : "Khronos glTF Blender I/O v0.9.11",
        "version" : "2.0"
    },
    "scene" : 0,
    "scenes" : [
        {
            "name" : "Scene",
            "nodes" : [
                0
            ]
        }
    ],
    "nodes" : [
        {
            "mesh" : 0,
            "name" : "Cube.003"
        }
    ],
    "materials" : [
        {
            "doubleSided" : true,
            "name" : "Material.002",
            "pbrMetallicRoughness" : {
                "baseColorFactor" : [
                    1,
                    0.6041886210441589,
                    0,
                    1
                ],
                "metallicFactor" : 0.75,
                "roughnessFactor" : 0.4000000059604645
            }
        }
    ],
    "meshes" : [
        {
            "name" : "Cube.003",
            "primitives" : [
                {
                    "attributes" : {
                        "POSITION" : 0,
                        "NORMAL" : 1,
                        "TEXCOORD_0" : 2
                    },
                    "indices" : 3,
                    "material" : 0
                }
            ]
        }
    ],
    "accessors" : [
        {
            "bufferView" : 0,
            "componentType" : 5126,
            "count" : 1221,
            "max" : [
                0.6336387991905212,
                0.35408300161361694,
                0.7075908780097961
            ],
            "min" : [
                -0.4752238392829895,
                -0.4135233163833618,
                0.0059239864349365234
            ],
            "type" : "VEC3"
        },
        {
            "bufferView" : 1,
            "componentType" : 5126,
            "count" : 1221,
            "type" : "VEC3"
        },
        {
            "bufferView" : 2,
            "componentType" : 5126,
            "count" : 1221,
            "type" : "VEC2"
        },
        {
            "bufferView" : 3,
            "componentType" : 5123,
            "count" : 2082,
            "type" : "SCALAR"
        }
    ],
    "bufferViews" : [
        {
            "buffer" : 0,
            "byteLength" : 14652,
            "byteOffset" : 0
        },
        {
            "buffer" : 0,
            "byteLength" : 14652,
            "byteOffset" : 14652
        },
        {
            "buffer" : 0,
            "byteLength" : 9768,
            "byteOffset" : 29304
        },
        {
            "buffer" : 0,
            "byteLength" : 4164,
            "byteOffset" : 39072
        }
    ],
    "buffers" : [
        {
            "byteLength" : 43236,
            "uri" : "data:application/octet-stream;base64,"
        }
    ]
}
