{
    "asset" : {
        "generator" : "Khronos glTF Blender I/O v0.9.11",
        "version" : "2.0"
    },
    "scene" : 0,
    "scenes" : [
        {
            "name" : "Scene",
            "nodes" : [
                0
            ]
        }
    ],
    "nodes" : [
        {
            "mesh" : 0,
            "name" : "Cylinder",
            "translation" : [
                0,
                0,
                1.0159517526626587
            ]
        }
    ],
    "materials" : [
        {
            "doubleSided" : true,
            "name" : "Material.001",
            "pbrMetallicRoughness" : {
                "baseColorFactor" : [
                    0.6266623139381409,
                    0.009345785714685917,
                    0.019009681418538094,
                    1
                ],
                "metallicFactor" : 0,
                "roughnessFactor" : 0.5
            }
        },
        {
            "doubleSided" : true,
            "name" : "Material.002",
            "pbrMetallicRoughness" : {
                "baseColorFactor" : [
                    0.057802360504865646,
                    0.057802360504865646,
                    0.057802360504865646,
                    1
                ],
                "metallicFactor" : 0,
                "roughnessFactor" : 0.5
            }
        },
        {
            "doubleSided" : true,
            "name" : "Material.003",
            "pbrMetallicRoughness" : {
                "baseColorFactor" : [
                    0.7612724900245667,
                    0.36360248923301697,
                    0.09405592083930969,
                    1
                ],
                "metallicFactor" : 0,
                "roughnessFactor" : 0.5
            }
        }
    ],
    "meshes" : [
        {
            "name" : "Cylinder",
            "primitives" : [
                {
                    "attributes" : {
                        "POSITION" : 0,
                        "NORMAL" : 1,
                        "TEXCOORD_0" : 2
                    },
                    "indices" : 3,
                    "material" : 0
                },
                {
                    "attributes" : {
                        "POSITION" : 4,
                        "NORMAL" : 5,
                        "TEXCOORD_0" : 6
                    },
                    "indices" : 7,
                    "material" : 1
                },
                {
                    "attributes" : {
                        "POSITION" : 8,
                        "NORMAL" : 9,
                        "TEXCOORD_0" : 10
                    },
                    "indices" : 11,
                    "material" : 2
                }
            ]
        }
    ],
    "accessors" : [
        {
            "bufferView" : 0,
            "componentType" : 5126,
            "count" : 124,
            "max" : [
                -0.8102611899375916,
                0.40671300888061523,
                0.38700246810913086
            ],
            "min" : [
                -1.6236872673034668,
                -0.40671300888061523,
                -0.9008703827857971
            ],
            "type" : "VEC3"
        },
        {
            "bufferView" : 1,
            "componentType" : 5126,
            "count" : 124,
            "type" : "VEC3"
        },
        {
            "bufferView" : 2,
            "componentType" : 5126,
            "count" : 124,
            "type" : "VEC2"
        },
        {
            "bufferView" : 3,
            "componentType" : 5123,
            "count" : 168,
            "type" : "SCALAR"
        },
        {
            "bufferView" : 4,
            "componentType" : 5126,
            "count" : 136,
            "max" : [
                -0.7628906965255737,
                0.4566453993320465,
                0.39497631788253784
            ],
            "min" : [
                -1.6761813163757324,
                -0.4566453993320465,
                -1.0129997730255127
            ],
            "type" : "VEC3"
        },
        {
            "bufferView" : 5,
            "componentType" : 5126,
            "count" : 136,
            "type" : "VEC3"
        },
        {
            "bufferView" : 6,
            "componentType" : 5126,
            "count" : 136,
            "type" : "VEC2"
        },
        {
            "bufferView" : 7,
            "componentType" : 5123,
            "count" : 210,
            "type" : "SCALAR"
        },
        {
            "bufferView" : 8,
            "componentType" : 5126,
            "count" : 41,
            "max" : [
                -0.9278252720832825,
                0.29111456871032715,
                0.7141055464744568
            ],
            "min" : [
                -1.5100548267364502,
                -0.29111504554748535,
                0.38700246810913086
            ],
            "type" : "VEC3"
        },
        {
            "bufferView" : 9,
            "componentType" : 5126,
            "count" : 41,
            "type" : "VEC3"
        },
        {
            "bufferView" : 10,
            "componentType" : 5126,
            "count" : 41,
            "type" : "VEC2"
        },
        {
            "bufferView" : 11,
            "componentType" : 5123,
            "count" : 72,
            "type" : "SCALAR"
        }
    ],
    "bufferViews" : [
        {
            "buffer" : 0,
            "byteLength" : 1488,
            "byteOffset" : 0
        },
        {
            "buffer" : 0,
            "byteLength" : 1488,
            "byteOffset" : 1488
        },
        {
            "buffer" : 0,
            "byteLength" : 992,
            "byteOffset" : 2976
        },
        {
            "buffer" : 0,
            "byteLength" : 336,
            "byteOffset" : 3968
        },
        {
            "buffer" : 0,
            "byteLength" : 1632,
            "byteOffset" : 4304
        },
        {
            "buffer" : 0,
            "byteLength" : 1632,
            "byteOffset" : 5936
        },
        {
            "buffer" : 0,
            "byteLength" : 1088,
            "byteOffset" : 7568
        },
        {
            "buffer" : 0,
            "byteLength" : 420,
            "byteOffset" : 8656
        },
        {
            "buffer" : 0,
            "byteLength" : 492,
            "byteOffset" : 9076
        },
        {
            "buffer" : 0,
            "byteLength" : 492,
            "byteOffset" : 9568
        },
        {
            "buffer" : 0,
            "byteLength" : 328,
            "byteOffset" : 10060
        },
        {
            "buffer" : 0,
            "byteLength" : 144,
            "byteOffset" : 10388
        }
    ],
    "buffers" : [
        {
            "byteLength" : 10532,
            "uri" : "data:application/octet-stream;base64,"
        }
    ]
}
