# Blender v2.80 (sub 72) OBJ File: 'potion.blend'
# www.blender.org
mtllib potion.mtl
o Cylinder
v -1.219536 0.002952 -0.294536
v -1.006065 1.730057 -0.212874
v -1.011268 0.002952 -0.208268
v -1.005264 1.402954 -0.213676
v -0.925000 0.002952 0.000000
v -1.006065 1.730057 0.212875
v -1.011268 0.002952 0.208268
v -1.005264 1.402954 0.213677
v -1.219536 0.002952 0.294536
v -1.431815 1.730057 -0.212874
v -1.427804 0.002952 0.208268
v -1.432617 1.402954 -0.213676
v -1.514072 0.002952 -0.000000
v -1.431815 1.730057 0.212875
v -1.427804 0.002952 -0.208268
v -1.432617 1.402954 0.213677
v -1.219536 0.116330 -0.405027
v -1.219536 1.308741 -0.405027
v -1.219536 1.410928 -0.249320
v -1.043240 1.410928 -0.176296
v -0.933139 1.308741 -0.286397
v -0.933139 0.116330 -0.286397
v -0.970216 1.410928 0.000000
v -0.814509 1.308741 0.000000
v -0.814509 0.116330 0.000000
v -1.043240 1.410928 0.176296
v -0.933139 1.308741 0.286397
v -0.933139 0.116330 0.286397
v -1.219536 1.410928 0.249320
v -1.219536 1.308741 0.405027
v -1.219536 0.116330 0.405027
v -1.395832 1.410928 0.176296
v -1.505933 1.308741 0.286397
v -1.505933 0.116330 0.286397
v -1.468856 1.410928 -0.000000
v -1.624563 1.308741 -0.000000
v -1.624563 0.116330 -0.000000
v -1.395832 1.410928 -0.176296
v -1.505933 1.308741 -0.286397
v -1.505933 0.116330 -0.286397
v -1.219536 0.764416 -0.456645
v -0.896639 0.764416 -0.322897
v -0.762891 0.764416 0.000000
v -0.896639 0.764416 0.322897
v -1.219536 0.764416 0.456645
v -1.542433 0.764416 0.322897
v -1.676181 0.764416 -0.000000
v -1.542433 0.764416 -0.322897
v -1.216974 0.988572 -0.379563
v -1.216974 0.711681 -0.406713
v -1.216974 0.121047 -0.359364
v -0.948583 0.988572 -0.268391
v -0.929385 0.711681 -0.287590
v -0.962866 0.121047 -0.254109
v -0.837412 0.988572 0.000000
v -0.810261 0.711681 0.000000
v -0.857610 0.121047 0.000000
v -0.948583 0.988572 0.268391
v -0.929385 0.711681 0.287590
v -0.962866 0.121047 0.254109
v -1.216974 0.115081 0.000000
v -1.216974 0.988572 0.379563
v -1.216974 0.711681 0.406713
v -1.216974 0.121047 0.359364
v -1.216974 0.985257 0.000000
v -1.485366 0.988572 0.268391
v -1.504564 0.711681 0.287590
v -1.471083 0.121047 0.254109
v -1.596537 0.988572 0.000000
v -1.623687 0.711681 0.000000
v -1.576338 0.121047 0.000000
v -1.485366 0.988572 -0.268391
v -1.504564 0.711681 -0.287589
v -1.471083 0.121047 -0.254109
v -1.218940 1.402954 0.291115
v -1.218940 1.402954 -0.291115
v -1.218940 1.730057 0.291115
v -1.218940 1.730057 -0.291115
v -0.927825 1.730057 0.000000
v -1.510055 1.730057 0.000000
v -0.927825 1.402954 0.000000
v -1.510055 1.402954 0.000000
v -1.218940 1.402954 0.000000
v -1.218940 1.730057 0.000000
vt 0.500000 0.375000
vt 0.625000 0.375000
vt 0.625000 0.500000
vt 0.500000 0.500000
vt 0.750000 0.250000
vt 0.750000 0.500000
vt 0.625000 0.500000
vt 0.625000 0.250000
vt 0.750000 0.750000
vt 0.687500 1.000000
vt 0.625000 0.750000
vt 0.687500 0.000000
vt 0.500000 0.500000
vt 0.500000 0.250000
vt 0.562500 1.000000
vt 0.500000 0.750000
vt 0.562500 0.000000
vt 0.375000 0.500000
vt 0.375000 0.250000
vt 0.437500 1.000000
vt 0.375000 0.750000
vt 0.437500 0.000000
vt 0.250000 0.500000
vt 0.250000 0.250000
vt 0.312500 1.000000
vt 0.250000 0.750000
vt 0.312500 0.000000
vt 0.125000 0.750000
vt 0.125000 0.500000
vt 0.125000 0.250000
vt 0.187500 1.000000
vt 0.187500 0.000000
vt 0.062500 0.000000
vt 0.000000 0.250000
vt 0.000000 0.750000
vt 0.000000 0.500000
vt 0.062500 1.000000
vt 0.937500 0.000000
vt 1.000000 0.250000
vt 0.875000 0.250000
vt 1.000000 0.500000
vt 1.000000 0.750000
vt 0.875000 0.750000
vt 0.875000 0.500000
vt 0.937500 1.000000
vt 0.812500 0.000000
vt 0.812500 1.000000
vt 0.375000 0.375000
vt 0.375000 0.500000
vt 0.375000 0.250000
vt 0.500000 0.250000
vt 0.625000 0.250000
vt 0.750000 0.490000
vt 0.919706 0.419706
vt 0.990000 0.250000
vt 0.919706 0.080294
vt 0.750000 0.010000
vt 0.580294 0.080294
vt 0.510000 0.250000
vt 0.580294 0.419706
vt 0.125000 0.500000
vt 0.125000 0.625000
vt 0.000000 0.625000
vt 0.000000 0.500000
vt 0.125000 0.723837
vt 0.125000 0.750000
vt 0.000000 0.750000
vt 0.000000 0.723837
vt 0.125000 0.875000
vt 0.000000 0.875000
vt 0.250000 0.500000
vt 0.250000 0.625000
vt 0.250000 0.723837
vt 0.250000 0.750000
vt 0.250000 0.875000
vt 0.375000 0.500000
vt 0.375000 0.625000
vt 0.375000 0.723837
vt 0.375000 0.750000
vt 0.375000 0.875000
vt 0.500000 0.500000
vt 0.500000 0.625000
vt 0.500000 0.723837
vt 0.500000 0.750000
vt 0.500000 0.875000
vt 0.625000 0.500000
vt 0.625000 0.625000
vt 0.625000 0.723837
vt 0.625000 0.750000
vt 0.625000 0.875000
vt 0.750000 0.500000
vt 0.750000 0.625000
vt 0.750000 0.723837
vt 0.750000 0.750000
vt 0.750000 0.875000
vt 0.875000 0.500000
vt 0.875000 0.625000
vt 0.875000 0.723837
vt 0.875000 0.750000
vt 0.875000 0.875000
vt 1.000000 0.500000
vt 1.000000 0.625000
vt 1.000000 0.723837
vt 1.000000 0.750000
vt 1.000000 0.875000
vt 0.500000 0.125000
vt 0.625000 0.125000
vt 0.625000 0.250000
vt 0.500000 0.250000
vt 0.375000 0.625000
vt 0.625000 0.625000
vt 0.625000 0.750000
vt 0.375000 0.750000
vt 0.375000 0.875000
vt 0.625000 0.875000
vt 0.625000 1.000000
vt 0.375000 1.000000
vt 0.125000 0.625000
vt 0.375000 0.625000
vt 0.375000 0.750000
vt 0.125000 0.750000
vt 0.625000 0.625000
vt 0.875000 0.625000
vt 0.875000 0.750000
vt 0.625000 0.750000
vt 0.125000 0.500000
vt 0.375000 0.500000
vt 0.375000 0.500000
vt 0.625000 0.500000
vt 0.375000 0.125000
vt 0.375000 0.250000
vt 0.375000 0.000000
vt 0.500000 0.000000
vt 0.625000 0.500000
vt 0.875000 0.500000
vt 0.375000 0.750000
vt 0.625000 0.750000
vt 0.625000 0.000000
vn 0.0000 -1.0000 0.0000
vn 0.3816 -0.0739 -0.9214
vn -0.0036 1.0000 0.0087
vn 0.0069 -0.9998 -0.0166
vn 0.3811 0.0902 -0.9201
vn 0.9214 -0.0739 -0.3816
vn -0.0087 1.0000 0.0036
vn 0.0166 -0.9998 -0.0069
vn 0.9201 0.0902 -0.3811
vn 0.9214 -0.0739 0.3816
vn -0.0087 1.0000 -0.0036
vn 0.0166 -0.9998 0.0069
vn 0.9201 0.0902 0.3811
vn 0.3816 -0.0739 0.9214
vn -0.0036 1.0000 -0.0087
vn 0.0069 -0.9998 0.0166
vn 0.3811 0.0902 0.9201
vn -0.3811 0.0902 0.9201
vn -0.3816 -0.0739 0.9214
vn 0.0036 1.0000 -0.0087
vn -0.0069 -0.9998 0.0166
vn -0.0166 -0.9998 0.0069
vn -0.9201 0.0902 0.3811
vn -0.9214 -0.0739 0.3816
vn 0.0087 1.0000 -0.0036
vn -0.0166 -0.9998 -0.0069
vn -0.9201 0.0902 -0.3811
vn -0.9214 -0.0739 -0.3816
vn 0.0087 1.0000 0.0036
vn -0.0069 -0.9998 -0.0166
vn -0.3811 0.0902 -0.9201
vn -0.3816 -0.0739 -0.9214
vn 0.0036 1.0000 0.0087
vn -0.2844 -0.6691 -0.6866
vn -0.3812 0.0873 -0.9204
vn -0.2216 0.8152 -0.5350
vn -0.6866 -0.6691 -0.2844
vn -0.9204 0.0873 -0.3812
vn -0.5350 0.8152 -0.2216
vn -0.6866 -0.6691 0.2844
vn -0.9204 0.0873 0.3812
vn -0.5350 0.8152 0.2216
vn -0.2844 -0.6691 0.6866
vn -0.3812 0.0873 0.9204
vn -0.2216 0.8152 0.5350
vn 0.2844 -0.6691 0.6866
vn 0.3812 0.0873 0.9204
vn 0.2216 0.8152 0.5350
vn 0.6866 -0.6691 0.2844
vn 0.9204 0.0873 0.3812
vn 0.5350 0.8152 0.2216
vn 0.6866 -0.6691 -0.2844
vn 0.9204 0.0873 -0.3812
vn 0.5350 0.8152 -0.2216
vn 0.2844 -0.6691 -0.6866
vn 0.3812 0.0873 -0.9204
vn 0.2216 0.8152 -0.5350
vn 0.3817 -0.0734 -0.9214
vn 0.9214 -0.0734 -0.3817
vn 0.9214 -0.0734 0.3817
vn 0.3817 -0.0734 0.9214
vn -0.3817 -0.0734 0.9214
vn -0.9214 -0.0734 0.3817
vn -0.9214 -0.0734 -0.3817
vn -0.3817 -0.0734 -0.9214
vn 0.0000 1.0000 0.0000
vn -0.3428 0.0016 0.9394
vn 0.9394 0.0016 0.3428
vn 0.3428 0.0016 -0.9394
vn -0.9394 0.0016 -0.3428
vn -0.3428 0.0016 -0.9394
vn 0.3428 0.0016 0.9394
vn -0.9394 0.0016 0.3428
vn 0.9394 0.0016 -0.3428
usemtl Material.001
s off
f 83/1/1 81/2/1 8/3/1 75/4/1
f 51/5/2 50/6/2 53/7/2 54/8/2
f 49/9/3 65/10/3 52/11/3
f 61/12/4 51/5/4 54/8/4
f 50/6/5 49/9/5 52/11/5 53/7/5
f 54/8/6 53/7/6 56/13/6 57/14/6
f 52/11/7 65/15/7 55/16/7
f 61/17/8 54/8/8 57/14/8
f 53/7/9 52/11/9 55/16/9 56/13/9
f 57/14/10 56/13/10 59/18/10 60/19/10
f 55/16/11 65/20/11 58/21/11
f 61/22/12 57/14/12 60/19/12
f 56/13/13 55/16/13 58/21/13 59/18/13
f 60/19/14 59/18/14 63/23/14 64/24/14
f 58/21/15 65/25/15 62/26/15
f 61/27/16 60/19/16 64/24/16
f 59/18/17 58/21/17 62/26/17 63/23/17
f 63/23/18 62/26/18 66/28/18 67/29/18
f 64/24/19 63/23/19 67/29/19 68/30/19
f 62/26/20 65/31/20 66/28/20
f 61/32/21 64/24/21 68/30/21
f 61/33/22 68/30/22 71/34/22
f 67/29/23 66/28/23 69/35/23 70/36/23
f 68/30/24 67/29/24 70/36/24 71/34/24
f 66/28/25 65/37/25 69/35/25
f 61/38/26 71/39/26 74/40/26
f 70/41/27 69/42/27 72/43/27 73/44/27
f 71/39/28 70/41/28 73/44/28 74/40/28
f 69/42/29 65/45/29 72/43/29
f 61/46/30 74/40/30 51/5/30
f 73/44/31 72/43/31 49/9/31 50/6/31
f 74/40/32 73/44/32 50/6/32 51/5/32
f 72/43/33 65/47/33 49/9/33
f 82/48/1 83/1/1 75/4/1 16/49/1
f 12/50/1 76/51/1 83/1/1 82/48/1
f 76/51/1 4/52/1 81/2/1 83/1/1
usemtl Material.002
f 1/53/1 3/54/1 5/55/1 7/56/1 9/57/1 11/58/1 13/59/1 15/60/1
f 15/61/34 40/62/34 17/63/34 1/64/34
f 48/65/35 39/66/35 18/67/35 41/68/35
f 39/66/36 38/69/36 19/70/36 18/67/36
f 13/71/37 37/72/37 40/62/37 15/61/37
f 47/73/38 36/74/38 39/66/38 48/65/38
f 36/74/39 35/75/39 38/69/39 39/66/39
f 11/76/40 34/77/40 37/72/40 13/71/40
f 46/78/41 33/79/41 36/74/41 47/73/41
f 33/79/42 32/80/42 35/75/42 36/74/42
f 9/81/43 31/82/43 34/77/43 11/76/43
f 45/83/44 30/84/44 33/79/44 46/78/44
f 30/84/45 29/85/45 32/80/45 33/79/45
f 7/86/46 28/87/46 31/82/46 9/81/46
f 44/88/47 27/89/47 30/84/47 45/83/47
f 27/89/48 26/90/48 29/85/48 30/84/48
f 5/91/49 25/92/49 28/87/49 7/86/49
f 43/93/50 24/94/50 27/89/50 44/88/50
f 24/94/51 23/95/51 26/90/51 27/89/51
f 3/96/52 22/97/52 25/92/52 5/91/52
f 42/98/53 21/99/53 24/94/53 43/93/53
f 21/99/54 20/100/54 23/95/54 24/94/54
f 1/101/55 17/102/55 22/97/55 3/96/55
f 41/103/56 18/104/56 21/99/56 42/98/56
f 18/104/57 19/105/57 20/100/57 21/99/57
f 17/102/58 41/103/58 42/98/58 22/97/58
f 22/97/59 42/98/59 43/93/59 25/92/59
f 25/92/60 43/93/60 44/88/60 28/87/60
f 28/87/61 44/88/61 45/83/61 31/82/61
f 31/82/62 45/83/62 46/78/62 34/77/62
f 34/77/63 46/78/63 47/73/63 37/72/63
f 37/72/64 47/73/64 48/65/64 40/62/64
f 40/62/65 48/65/65 41/68/65 17/63/65
usemtl Material.003
f 84/106/66 80/107/66 14/108/66 77/109/66
f 75/110/67 77/111/67 14/112/67 16/113/67
f 81/114/68 79/115/68 6/116/68 8/117/68
f 76/118/69 78/119/69 2/120/69 4/121/69
f 82/122/70 80/123/70 10/124/70 12/125/70
f 12/126/71 10/127/71 78/119/71 76/118/71
f 8/128/72 6/129/72 77/111/72 75/110/72
f 79/130/66 84/106/66 77/109/66 6/131/66
f 2/132/66 78/133/66 84/106/66 79/130/66
f 16/134/73 14/135/73 80/123/73 82/122/73
f 4/136/74 2/137/74 79/115/74 81/114/74
f 78/133/66 10/138/66 80/107/66 84/106/66
