{
    "asset" : {
        "generator" : "Khronos glTF Blender I/O v1.2.75",
        "version" : "2.0"
    },
    "scene" : 0,
    "scenes" : [
        {
            "name" : "Scene",
            "nodes" : [
                0,
                1,
                2,
                3,
                4,
                5,
                6,
                7
            ]
        }
    ],
    "nodes" : [
        {
            "mesh" : 0,
            "name" : "Cube",
            "scale" : [
                1.4552730321884155,
                -1.2969049215316772,
                -0.18819932639598846
            ],
            "translation" : [
                0,
                0.9470247030258179,
                0
            ]
        },
        {
            "mesh" : 1,
            "name" : "Cube.001",
            "rotation" : [
                0,
                0,
                0.7071067690849304,
                0.7071067690849304
            ],
            "scale" : [
                -4.947999954223633,
                0.3052825331687927,
                -1.5
            ],
            "translation" : [
                0.3119926452636719,
                -0.37628406286239624,
                0
            ]
        },
        {
            "mesh" : 2,
            "name" : "Cube.004",
            "rotation" : [
                0,
                0,
                0.9238795042037964,
                0.3826834261417389
            ],
            "scale" : [
                0.045780476182699203,
                0.1745716780424118,
                0.2028951495885849
            ],
            "translation" : [
                -0.012425363063812256,
                0.26460665464401245,
                0
            ]
        },
        {
            "mesh" : 3,
            "name" : "Cube.005",
            "rotation" : [
                0,
                0,
                0.9238795042037964,
                0.3826834261417389
            ],
            "scale" : [
                0.045780476182699203,
                0.1745716780424118,
                0.2028951495885849
            ],
            "translation" : [
                -0.012425392866134644,
                0.494027316570282,
                0
            ]
        },
        {
            "mesh" : 4,
            "name" : "Cube.006",
            "rotation" : [
                0,
                0,
                0.9238795042037964,
                0.3826834261417389
            ],
            "scale" : [
                0.045780476182699203,
                0.1745716780424118,
                0.2028951495885849
            ],
            "translation" : [
                -0.012425422668457031,
                0.7465021014213562,
                0
            ]
        },
        {
            "mesh" : 5,
            "name" : "Cube.002",
            "rotation" : [
                0,
                0,
                0.7071067690849304,
                0.7071067690849304
            ],
            "scale" : [
                -4.947999954223633,
                0.3052825331687927,
                -1.5
            ],
            "translation" : [
                -0.9856793880462646,
                -0.37628406286239624,
                0
            ]
        },
        {
            "mesh" : 6,
            "name" : "Cube.003",
            "rotation" : [
                0.7071067690849304,
                0.7071067690849304,
                0,
                -1.9949601437474485e-07
            ],
            "scale" : [
                -4.947999954223633,
                0.3052825331687927,
                -1.5
            ],
            "translation" : [
                0.9608286619186401,
                -0.37628406286239624,
                0
            ]
        },
        {
            "mesh" : 7,
            "name" : "Cube.007",
            "rotation" : [
                0.7071067690849304,
                0.7071067690849304,
                0,
                -1.9949601437474485e-07
            ],
            "scale" : [
                -4.947999954223633,
                0.3052825331687927,
                -1.5
            ],
            "translation" : [
                -0.336843341588974,
                -0.3762838840484619,
                0
            ]
        }
    ],
    "materials" : [
        {
            "doubleSided" : true,
            "emissiveFactor" : [
                0.21403783559799194,
                0.21403783559799194,
                0.21403783559799194
            ],
            "name" : "Material.001",
            "pbrMetallicRoughness" : {
                "baseColorTexture" : {
                    "index" : 0,
                    "texCoord" : 0
                },
                "metallicFactor" : 0,
                "roughnessFactor" : 0.5
            }
        },
        {
            "doubleSided" : true,
            "emissiveFactor" : [
                0,
                0,
                0
            ],
            "name" : "Material.002",
            "pbrMetallicRoughness" : {
                "baseColorTexture" : {
                    "index" : 1,
                    "texCoord" : 0
                },
                "metallicFactor" : 0,
                "roughnessFactor" : 0.5
            }
        },
        {
            "doubleSided" : true,
            "emissiveFactor" : [
                0,
                0,
                0
            ],
            "name" : "Material.003",
            "pbrMetallicRoughness" : {
                "baseColorFactor" : [
                    0,
                    0.694207489490509,
                    0.8000000715255737,
                    1
                ],
                "metallicFactor" : 0,
                "roughnessFactor" : 0.5
            }
        }
    ],
    "meshes" : [
        {
            "name" : "Cube.012",
            "primitives" : [
                {
                    "attributes" : {
                        "POSITION" : 0,
                        "NORMAL" : 1,
                        "TEXCOORD_0" : 2
                    },
                    "indices" : 3,
                    "material" : 0
                }
            ]
        },
        {
            "name" : "Cube.002",
            "primitives" : [
                {
                    "attributes" : {
                        "POSITION" : 4,
                        "NORMAL" : 5,
                        "TEXCOORD_0" : 6
                    },
                    "indices" : 7,
                    "material" : 1
                }
            ]
        },
        {
            "name" : "Cube.005",
            "primitives" : [
                {
                    "attributes" : {
                        "POSITION" : 8,
                        "NORMAL" : 9,
                        "TEXCOORD_0" : 10
                    },
                    "indices" : 7,
                    "material" : 2
                }
            ]
        },
        {
            "name" : "Cube.006",
            "primitives" : [
                {
                    "attributes" : {
                        "POSITION" : 11,
                        "NORMAL" : 12,
                        "TEXCOORD_0" : 13
                    },
                    "indices" : 7,
                    "material" : 2
                }
            ]
        },
        {
            "name" : "Cube.007",
            "primitives" : [
                {
                    "attributes" : {
                        "POSITION" : 14,
                        "NORMAL" : 15,
                        "TEXCOORD_0" : 16
                    },
                    "indices" : 7,
                    "material" : 2
                }
            ]
        },
        {
            "name" : "Cube.008",
            "primitives" : [
                {
                    "attributes" : {
                        "POSITION" : 17,
                        "NORMAL" : 18,
                        "TEXCOORD_0" : 19
                    },
                    "indices" : 7,
                    "material" : 1
                }
            ]
        },
        {
            "name" : "Cube.009",
            "primitives" : [
                {
                    "attributes" : {
                        "POSITION" : 20,
                        "NORMAL" : 21,
                        "TEXCOORD_0" : 22
                    },
                    "indices" : 7,
                    "material" : 1
                }
            ]
        },
        {
            "name" : "Cube.010",
            "primitives" : [
                {
                    "attributes" : {
                        "POSITION" : 23,
                        "NORMAL" : 24,
                        "TEXCOORD_0" : 25
                    },
                    "indices" : 7,
                    "material" : 1
                }
            ]
        }
    ],
    "textures" : [
        {
            "source" : 0
        },
        {
            "source" : 1
        }
    ],
    "images" : [
        {
            "bufferView" : 4,
            "mimeType" : "image/jpeg",
            "name" : "metal"
        },
        {
            "bufferView" : 9,
            "mimeType" : "image/jpeg",
            "name" : "wood"
        }
    ],
    "accessors" : [
        {
            "bufferView" : 0,
            "componentType" : 5126,
            "count" : 142,
            "max" : [
                1,
                1.6633392572402954,
                1.000000238418579
            ],
            "min" : [
                -1,
                -1,
                -1
            ],
            "type" : "VEC3"
        },
        {
            "bufferView" : 1,
            "componentType" : 5126,
            "count" : 142,
            "type" : "VEC3"
        },
        {
            "bufferView" : 2,
            "componentType" : 5126,
            "count" : 142,
            "type" : "VEC2"
        },
        {
            "bufferView" : 3,
            "componentType" : 5123,
            "count" : 288,
            "type" : "SCALAR"
        },
        {
            "bufferView" : 5,
            "componentType" : 5126,
            "count" : 24,
            "max" : [
                0.12388491630554199,
                1.0626811981201172,
                0.08862507343292236
            ],
            "min" : [
                -0.5030679702758789,
                -1.0626811981201172,
                -0.08862507343292236
            ],
            "type" : "VEC3"
        },
        {
            "bufferView" : 6,
            "componentType" : 5126,
            "count" : 24,
            "type" : "VEC3"
        },
        {
            "bufferView" : 7,
            "componentType" : 5126,
            "count" : 24,
            "type" : "VEC2"
        },
        {
            "bufferView" : 8,
            "componentType" : 5123,
            "count" : 36,
            "type" : "SCALAR"
        },
        {
            "bufferView" : 10,
            "componentType" : 5126,
            "count" : 24,
            "max" : [
                1,
                1,
                1
            ],
            "min" : [
                -1,
                -1,
                -1
            ],
            "type" : "VEC3"
        },
        {
            "bufferView" : 11,
            "componentType" : 5126,
            "count" : 24,
            "type" : "VEC3"
        },
        {
            "bufferView" : 12,
            "componentType" : 5126,
            "count" : 24,
            "type" : "VEC2"
        },
        {
            "bufferView" : 13,
            "componentType" : 5126,
            "count" : 24,
            "max" : [
                1,
                1,
                1
            ],
            "min" : [
                -1,
                -1,
                -1
            ],
            "type" : "VEC3"
        },
        {
            "bufferView" : 14,
            "componentType" : 5126,
            "count" : 24,
            "type" : "VEC3"
        },
        {
            "bufferView" : 15,
            "componentType" : 5126,
            "count" : 24,
            "type" : "VEC2"
        },
        {
            "bufferView" : 16,
            "componentType" : 5126,
            "count" : 24,
            "max" : [
                1,
                1,
                1
            ],
            "min" : [
                -1,
                -1,
                -1
            ],
            "type" : "VEC3"
        },
        {
            "bufferView" : 17,
            "componentType" : 5126,
            "count" : 24,
            "type" : "VEC3"
        },
        {
            "bufferView" : 18,
            "componentType" : 5126,
            "count" : 24,
            "type" : "VEC2"
        },
        {
            "bufferView" : 19,
            "componentType" : 5126,
            "count" : 24,
            "max" : [
                0.12388491630554199,
                1.0626811981201172,
                0.08862507343292236
            ],
            "min" : [
                -0.5030679702758789,
                -1.0626811981201172,
                -0.08862507343292236
            ],
            "type" : "VEC3"
        },
        {
            "bufferView" : 20,
            "componentType" : 5126,
            "count" : 24,
            "type" : "VEC3"
        },
        {
            "bufferView" : 21,
            "componentType" : 5126,
            "count" : 24,
            "type" : "VEC2"
        },
        {
            "bufferView" : 22,
            "componentType" : 5126,
            "count" : 24,
            "max" : [
                0.12388491630554199,
                1.0626811981201172,
                0.08862507343292236
            ],
            "min" : [
                -0.5030679702758789,
                -1.0626811981201172,
                -0.08862507343292236
            ],
            "type" : "VEC3"
        },
        {
            "bufferView" : 23,
            "componentType" : 5126,
            "count" : 24,
            "type" : "VEC3"
        },
        {
            "bufferView" : 24,
            "componentType" : 5126,
            "count" : 24,
            "type" : "VEC2"
        },
        {
            "bufferView" : 25,
            "componentType" : 5126,
            "count" : 24,
            "max" : [
                0.12388491630554199,
                1.0626811981201172,
                0.08862507343292236
            ],
            "min" : [
                -0.5030679702758789,
                -1.0626811981201172,
                -0.08862507343292236
            ],
            "type" : "VEC3"
        },
        {
            "bufferView" : 26,
            "componentType" : 5126,
            "count" : 24,
            "type" : "VEC3"
        },
        {
            "bufferView" : 27,
            "componentType" : 5126,
            "count" : 24,
            "type" : "VEC2"
        }
    ],
    "bufferViews" : [
        {
            "buffer" : 0,
            "byteLength" : 1704,
            "byteOffset" : 0
        },
        {
            "buffer" : 0,
            "byteLength" : 1704,
            "byteOffset" : 1704
        },
        {
            "buffer" : 0,
            "byteLength" : 1136,
            "byteOffset" : 3408
        },
        {
            "buffer" : 0,
            "byteLength" : 576,
            "byteOffset" : 4544
        },
        {
            "buffer" : 0,
            "byteLength" : 478291,
            "byteOffset" : 5120
        },
        {
            "buffer" : 0,
            "byteLength" : 288,
            "byteOffset" : 483412
        },
        {
            "buffer" : 0,
            "byteLength" : 288,
            "byteOffset" : 483700
        },
        {
            "buffer" : 0,
            "byteLength" : 192,
            "byteOffset" : 483988
        },
        {
            "buffer" : 0,
            "byteLength" : 72,
            "byteOffset" : 484180
        },
        {
            "buffer" : 0,
            "byteLength" : 29551,
            "byteOffset" : 484252
        },
        {
            "buffer" : 0,
            "byteLength" : 288,
            "byteOffset" : 513804
        },
        {
            "buffer" : 0,
            "byteLength" : 288,
            "byteOffset" : 514092
        },
        {
            "buffer" : 0,
            "byteLength" : 192,
            "byteOffset" : 514380
        },
        {
            "buffer" : 0,
            "byteLength" : 288,
            "byteOffset" : 514572
        },
        {
            "buffer" : 0,
            "byteLength" : 288,
            "byteOffset" : 514860
        },
        {
            "buffer" : 0,
            "byteLength" : 192,
            "byteOffset" : 515148
        },
        {
            "buffer" : 0,
            "byteLength" : 288,
            "byteOffset" : 515340
        },
        {
            "buffer" : 0,
            "byteLength" : 288,
            "byteOffset" : 515628
        },
        {
            "buffer" : 0,
            "byteLength" : 192,
            "byteOffset" : 515916
        },
        {
            "buffer" : 0,
            "byteLength" : 288,
            "byteOffset" : 516108
        },
        {
            "buffer" : 0,
            "byteLength" : 288,
            "byteOffset" : 516396
        },
        {
            "buffer" : 0,
            "byteLength" : 192,
            "byteOffset" : 516684
        },
        {
            "buffer" : 0,
            "byteLength" : 288,
            "byteOffset" : 516876
        },
        {
            "buffer" : 0,
            "byteLength" : 288,
            "byteOffset" : 517164
        },
        {
            "buffer" : 0,
            "byteLength" : 192,
            "byteOffset" : 517452
        },
        {
            "buffer" : 0,
            "byteLength" : 288,
            "byteOffset" : 517644
        },
        {
            "buffer" : 0,
            "byteLength" : 288,
            "byteOffset" : 517932
        },
        {
            "buffer" : 0,
            "byteLength" : 192,
            "byteOffset" : 518220
        }
    ],
    "buffers" : [
        {
            "byteLength" : 518412,
            "uri" : "data:application/octet-stream;base64,"
        }
    ]
}
