# Blender v2.80 (sub 72) OBJ File: 'sword.blend'
# www.blender.org
mtllib sword.mtl
o Cube
v 0.682806 0.106906 -0.601330
v 0.643682 0.106906 2.784576
v 0.664533 0.106906 0.583144
v 0.643682 0.106906 1.710771
v 0.995876 -0.005133 3.120066
v 0.995876 0.240374 3.120066
v 0.995876 -0.005133 2.833850
v 0.995876 0.240374 2.833850
v -0.001218 -0.001218 4.858609
v -0.001218 0.154104 4.858609
v -0.001218 -0.001218 3.175880
v -0.001218 0.154104 3.175880
v 0.344589 -0.001218 4.858609
v 0.344589 0.154104 4.858609
v 0.344589 -0.001218 3.175880
v 0.344589 0.154104 3.175880
v -0.682806 0.106906 -0.601330
v -0.643682 0.106906 2.784576
v 0.000000 0.207044 -1.130008
v 0.000000 0.207044 2.784576
v -0.664533 0.106906 0.583144
v -0.643682 0.106906 1.710771
v 0.000000 0.207044 1.710771
v 0.000000 0.207044 0.583144
v 0.000000 -0.005133 3.120066
v 0.000000 0.240374 3.120066
v 0.000000 -0.005133 2.833850
v 0.000000 0.240374 2.833850
v -0.995876 -0.005133 3.120066
v -0.995876 0.240374 3.120066
v -0.995876 -0.005133 2.833850
v -0.995876 0.240374 2.833850
v 0.001218 -0.001218 4.858609
v 0.001218 0.154104 4.858609
v 0.001218 -0.001218 3.175880
v 0.001218 0.154104 3.175880
v -0.344589 -0.001218 4.858609
v -0.344589 0.154104 4.858609
v -0.344589 -0.001218 3.175880
v -0.344589 0.154104 3.175880
v 0.682806 -0.106906 -0.601330
v 0.682806 0.000000 -0.601330
v 0.643682 -0.106906 2.784576
v 0.643682 0.000000 2.784576
v 0.664533 -0.106906 0.583144
v 0.643682 -0.106906 1.710771
v 0.643682 0.000000 1.710771
v 0.664533 0.000000 0.583144
v 0.995876 0.005133 3.120066
v 0.995876 -0.240374 3.120066
v 0.995876 0.005133 2.833850
v 0.995876 -0.240374 2.833850
v -0.001218 0.001218 4.858609
v -0.001218 -0.154104 4.858609
v -0.001218 0.001218 3.175880
v -0.001218 -0.154104 3.175880
v 0.344589 0.001218 4.858609
v 0.344589 -0.154104 4.858609
v 0.344589 0.001218 3.175880
v 0.344589 -0.154104 3.175880
v -0.682806 -0.106906 -0.601330
v -0.682806 0.000000 -0.601330
v -0.643682 -0.106906 2.784576
v -0.643682 0.000000 2.784576
v 0.000000 -0.207044 -1.130008
v 0.000000 0.000000 -1.130008
v 0.000000 -0.207044 2.784576
v 0.000000 0.000000 2.784576
v 0.000000 0.000000 0.583144
v 0.000000 0.000000 1.710771
v -0.664533 -0.106906 0.583144
v -0.643682 -0.106906 1.710771
v 0.000000 -0.207044 1.710771
v 0.000000 -0.207044 0.583144
v -0.643682 0.000000 1.710771
v -0.664533 0.000000 0.583144
v 0.000000 0.005133 3.120066
v 0.000000 -0.240374 3.120066
v 0.000000 0.005133 2.833850
v 0.000000 -0.240374 2.833850
v -0.995876 0.005133 3.120066
v -0.995876 -0.240374 3.120066
v -0.995876 0.005133 2.833850
v -0.995876 -0.240374 2.833850
v 0.001218 0.001218 4.858609
v 0.001218 -0.154104 4.858609
v 0.001218 0.001218 3.175880
v 0.001218 -0.154104 3.175880
v -0.344589 0.001218 4.858609
v -0.344589 -0.154104 4.858609
v -0.344589 0.001218 3.175880
v -0.344589 -0.154104 3.175880
vt 0.375000 0.166667
vt 0.625000 0.166667
vt 0.625000 0.250000
vt 0.375000 0.250000
vt 0.375000 0.250000
vt 0.625000 0.250000
vt 0.625000 0.500000
vt 0.375000 0.500000
vt 0.125000 0.666667
vt 0.375000 0.666667
vt 0.375000 0.750000
vt 0.125000 0.750000
vt 0.625000 0.500000
vt 0.875000 0.500000
vt 0.875000 0.750000
vt 0.625000 0.750000
vt 0.125000 0.500000
vt 0.375000 0.500000
vt 0.375000 0.583333
vt 0.125000 0.583333
vt 0.375000 0.000000
vt 0.625000 0.000000
vt 0.625000 0.083333
vt 0.375000 0.083333
vt 0.375000 0.250000
vt 0.625000 0.250000
vt 0.625000 0.500000
vt 0.375000 0.500000
vt 0.625000 0.750000
vt 0.375000 0.750000
vt 0.625000 1.000000
vt 0.375000 1.000000
vt 0.125000 0.500000
vt 0.125000 0.750000
vt 0.875000 0.500000
vt 0.875000 0.750000
vt 0.375000 0.000000
vt 0.625000 0.000000
vt 0.625000 0.250000
vt 0.375000 0.250000
vt 0.625000 0.500000
vt 0.375000 0.500000
vt 0.625000 0.750000
vt 0.375000 0.750000
vt 0.625000 1.000000
vt 0.375000 1.000000
vt 0.125000 0.500000
vt 0.125000 0.750000
vt 0.875000 0.500000
vt 0.875000 0.750000
vt 0.375000 0.166667
vt 0.375000 0.250000
vt 0.375000 0.250000
vt 0.625000 0.250000
vt 0.375000 0.666667
vt 0.375000 0.750000
vt 0.625000 0.750000
vt 0.625000 0.666667
vt 0.125000 0.666667
vt 0.125000 0.750000
vt 0.375000 0.750000
vt 0.375000 0.666667
vt 0.625000 0.750000
vt 0.875000 0.750000
vt 0.125000 0.500000
vt 0.125000 0.583333
vt 0.375000 0.583333
vt 0.375000 0.500000
vt 0.375000 0.583333
vt 0.625000 0.583333
vt 0.375000 0.000000
vt 0.375000 0.083333
vt 0.375000 0.000000
vt 0.625000 0.000000
vt 0.375000 0.500000
vt 0.625000 0.500000
vt 0.375000 0.750000
vt 0.625000 0.750000
vt 0.375000 0.000000
vt 0.375000 0.250000
vt 0.625000 0.250000
vt 0.625000 0.000000
vt 0.375000 0.500000
vt 0.625000 0.500000
vt 0.375000 0.750000
vt 0.625000 0.750000
vt 0.375000 1.000000
vt 0.625000 1.000000
vt 0.125000 0.500000
vt 0.125000 0.750000
vt 0.875000 0.750000
vt 0.875000 0.500000
vt 0.375000 0.166667
vt 0.375000 0.250000
vt 0.625000 0.250000
vt 0.625000 0.166667
vt 0.625000 0.500000
vt 0.625000 0.250000
vt 0.375000 0.916667
vt 0.375000 1.000000
vt 0.625000 1.000000
vt 0.625000 0.916667
vt 0.375000 0.750000
vt 0.375000 0.666667
vt 0.875000 0.750000
vt 0.875000 0.500000
vt 0.375000 0.583333
vt 0.375000 0.500000
vt 0.375000 0.833333
vt 0.625000 0.833333
vt 0.375000 0.000000
vt 0.375000 0.083333
vt 0.625000 0.083333
vt 0.625000 0.000000
vt 0.375000 0.250000
vt 0.375000 0.500000
vt 0.625000 0.500000
vt 0.625000 0.250000
vt 0.375000 0.750000
vt 0.625000 0.750000
vt 0.375000 1.000000
vt 0.625000 1.000000
vt 0.125000 0.500000
vt 0.125000 0.750000
vt 0.875000 0.750000
vt 0.875000 0.500000
vt 0.375000 0.000000
vt 0.375000 0.250000
vt 0.625000 0.250000
vt 0.625000 0.000000
vt 0.375000 0.500000
vt 0.625000 0.500000
vt 0.375000 0.750000
vt 0.625000 0.750000
vt 0.375000 1.000000
vt 0.625000 1.000000
vt 0.125000 0.500000
vt 0.125000 0.750000
vt 0.875000 0.750000
vt 0.875000 0.500000
vt 0.375000 0.166667
vt 0.375000 0.250000
vt 0.625000 0.250000
vt 0.625000 0.666667
vt 0.625000 0.750000
vt 0.625000 0.916667
vt 0.625000 1.000000
vt 0.375000 0.666667
vt 0.375000 0.750000
vt 0.875000 0.750000
vt 0.375000 0.500000
vt 0.375000 0.583333
vt 0.625000 0.833333
vt 0.625000 0.583333
vt 0.375000 0.000000
vt 0.375000 0.083333
vt 0.375000 0.000000
vt 0.625000 0.000000
vt 0.625000 0.500000
vt 0.375000 0.500000
vt 0.625000 0.750000
vt 0.375000 0.750000
vt 0.375000 0.000000
vt 0.625000 0.000000
vt 0.625000 0.250000
vt 0.375000 0.250000
vt 0.625000 0.500000
vt 0.375000 0.500000
vt 0.625000 0.750000
vt 0.375000 0.750000
vt 0.625000 1.000000
vt 0.375000 1.000000
vt 0.125000 0.500000
vt 0.125000 0.750000
vt 0.875000 0.500000
vt 0.875000 0.750000
vn 0.1537 0.9881 0.0000
vn 0.0000 0.0000 1.0000
vn 1.0000 0.0000 0.0000
vn 0.6122 0.0000 -0.7907
vn 0.9999 0.0000 0.0154
vn 0.9998 0.0000 0.0185
vn 0.1467 0.9892 0.0009
vn 0.1513 0.9885 0.0014
vn 0.0000 0.0000 -1.0000
vn 0.0000 -1.0000 0.0000
vn 0.0000 1.0000 0.0000
vn -1.0000 0.0000 0.0000
vn -0.1537 0.9881 0.0000
vn -0.6122 0.0000 -0.7907
vn -0.9999 0.0000 0.0154
vn -0.9998 0.0000 0.0185
vn -0.1467 0.9892 0.0009
vn -0.1513 0.9885 0.0014
vn 0.1537 -0.9881 0.0000
vn 0.1467 -0.9892 0.0009
vn 0.1513 -0.9885 0.0014
vn -0.1537 -0.9881 0.0000
vn -0.1467 -0.9892 0.0009
vn -0.1513 -0.9885 0.0014
usemtl Material
s off
f 4/1/1 23/2/1 20/3/1 2/4/1
f 44/5/2 2/6/2 20/7/2 68/8/2
f 47/9/3 4/10/3 2/11/3 44/12/3
f 66/13/4 19/14/4 1/15/4 42/16/4
f 42/17/5 1/18/5 3/19/5 48/20/5
f 48/20/6 3/19/6 4/10/6 47/9/6
f 1/21/7 19/22/7 24/23/7 3/24/7
f 3/24/8 24/23/8 23/2/8 4/1/8
f 27/25/9 28/26/9 8/27/9 7/28/9
f 7/28/3 8/27/3 6/29/3 5/30/3
f 5/30/2 6/29/2 26/31/2 25/32/2
f 27/33/10 7/28/10 5/30/10 25/34/10
f 8/27/11 28/35/11 26/36/11 6/29/11
f 9/37/12 10/38/12 12/39/12 11/40/12
f 11/40/9 12/39/9 16/41/9 15/42/9
f 15/42/3 16/41/3 14/43/3 13/44/3
f 13/44/2 14/43/2 10/45/2 9/46/2
f 11/47/10 15/42/10 13/44/10 9/48/10
f 16/41/11 12/49/11 10/50/11 14/43/11
f 22/51/13 18/52/13 20/3/13 23/2/13
f 64/53/2 68/8/2 20/7/2 18/54/2
f 69/55/3 66/56/3 19/57/3 24/58/3
f 75/59/12 64/60/12 18/61/12 22/62/12
f 66/13/14 62/63/14 17/64/14 19/14/14
f 62/65/15 76/66/15 21/67/15 17/68/15
f 76/66/16 75/59/16 22/62/16 21/67/16
f 68/8/3 70/69/3 23/70/3 20/7/3
f 70/69/3 69/55/3 24/58/3 23/70/3
f 17/71/17 21/72/17 24/23/17 19/22/17
f 21/72/18 22/51/18 23/2/18 24/23/18
f 25/73/3 27/25/3 28/26/3 26/74/3
f 27/25/9 31/75/9 32/76/9 28/26/9
f 31/75/12 29/77/12 30/78/12 32/76/12
f 29/77/2 25/32/2 26/31/2 30/78/2
f 27/33/10 25/34/10 29/77/10 31/75/10
f 32/76/11 30/78/11 26/36/11 28/35/11
f 33/79/3 35/80/3 36/81/3 34/82/3
f 35/80/9 39/83/9 40/84/9 36/81/9
f 39/83/12 37/85/12 38/86/12 40/84/12
f 37/85/2 33/87/2 34/88/2 38/86/2
f 35/89/10 33/90/10 37/85/10 39/83/10
f 40/84/11 38/86/11 34/91/11 36/92/11
f 46/93/19 43/94/19 67/95/19 73/96/19
f 44/5/2 68/8/2 67/97/2 43/98/2
f 70/99/11 68/100/11 44/101/11 47/102/11
f 47/9/3 44/12/3 43/103/3 46/104/3
f 66/13/4 42/16/4 41/105/4 65/106/4
f 42/17/5 48/20/5 45/107/5 41/108/5
f 48/20/6 47/9/6 46/104/6 45/107/6
f 66/56/11 69/109/11 48/110/11 42/16/11
f 69/109/11 70/99/11 47/102/11 48/110/11
f 41/111/20 45/112/20 74/113/20 65/114/20
f 45/112/21 46/93/21 73/96/21 74/113/21
f 79/115/9 51/116/9 52/117/9 80/118/9
f 51/116/3 49/119/3 50/120/3 52/117/3
f 49/119/2 77/121/2 78/122/2 50/120/2
f 79/123/11 77/124/11 49/119/11 51/116/11
f 52/117/10 50/120/10 78/125/10 80/126/10
f 53/127/12 55/128/12 56/129/12 54/130/12
f 55/128/9 59/131/9 60/132/9 56/129/9
f 59/131/3 57/133/3 58/134/3 60/132/3
f 57/133/2 53/135/2 54/136/2 58/134/2
f 55/137/11 53/138/11 57/133/11 59/131/11
f 60/132/10 58/134/10 54/139/10 56/140/10
f 72/141/22 73/96/22 67/95/22 63/142/22
f 64/53/2 63/143/2 67/97/2 68/8/2
f 69/55/3 74/144/3 65/145/3 66/56/3
f 70/99/11 75/146/11 64/147/11 68/100/11
f 75/59/12 72/148/12 63/149/12 64/60/12
f 66/13/14 65/106/14 61/150/14 62/63/14
f 62/65/15 61/151/15 71/152/15 76/66/15
f 76/66/16 71/152/16 72/148/16 75/59/16
f 66/56/11 62/63/11 76/153/11 69/109/11
f 69/109/11 76/153/11 75/146/11 70/99/11
f 68/8/3 67/97/3 73/154/3 70/69/3
f 70/69/3 73/154/3 74/144/3 69/55/3
f 61/155/23 65/114/23 74/113/23 71/156/23
f 71/156/24 74/113/24 73/96/24 72/141/24
f 77/157/3 78/158/3 80/118/3 79/115/3
f 79/115/9 80/118/9 84/159/9 83/160/9
f 83/160/12 84/159/12 82/161/12 81/162/12
f 81/162/2 82/161/2 78/122/2 77/121/2
f 79/123/11 83/160/11 81/162/11 77/124/11
f 84/159/10 80/126/10 78/125/10 82/161/10
f 85/163/3 86/164/3 88/165/3 87/166/3
f 87/166/9 88/165/9 92/167/9 91/168/9
f 91/168/12 92/167/12 90/169/12 89/170/12
f 89/170/2 90/169/2 86/171/2 85/172/2
f 87/173/11 91/168/11 89/170/11 85/174/11
f 92/167/10 88/175/10 86/176/10 90/169/10
