{
    "asset" : {
        "generator" : "Khronos glTF Blender I/O v1.2.75",
        "version" : "2.0"
    },
    "scene" : 0,
    "scenes" : [
        {
            "name" : "Scene",
            "nodes" : [
                0,
                1
            ]
        }
    ],
    "nodes" : [
        {
            "mesh" : 0,
            "name" : "Eyeball",
            "scale" : [
                1.5,
                1.5,
                1.5
            ],
            "translation" : [
                0,
                0,
                5
            ]
        },
        {
            "mesh" : 1,
            "name" : "Stick",
            "scale" : [
                0.25,
                0.25,
                2
            ],
            "translation" : [
                0,
                0,
                2
            ]
        }
    ],
    "materials" : [
        {
            "doubleSided" : true,
            "emissiveFactor" : [
                0,
                0,
                0
            ],
            "name" : "Material",
            "pbrMetallicRoughness" : {
                "baseColorTexture" : {
                    "index" : 0,
                    "texCoord" : 0
                },
                "metallicFactor" : 0,
                "roughnessFactor" : 0.4000000059604645
            }
        },
        {
            "doubleSided" : true,
            "emissiveFactor" : [
                0,
                0,
                0
            ],
            "name" : "Stick",
            "pbrMetallicRoughness" : {
                "baseColorTexture" : {
                    "index" : 1,
                    "texCoord" : 0
                },
                "metallicFactor" : 0,
                "roughnessFactor" : 0.5
            }
        }
    ],
    "meshes" : [
        {
            "name" : "Cube",
            "primitives" : [
                {
                    "attributes" : {
                        "POSITION" : 0,
                        "NORMAL" : 1,
                        "TEXCOORD_0" : 2
                    },
                    "indices" : 3,
                    "material" : 0
                }
            ]
        },
        {
            "name" : "Cube.001",
            "primitives" : [
                {
                    "attributes" : {
                        "POSITION" : 4,
                        "NORMAL" : 5,
                        "TEXCOORD_0" : 6
                    },
                    "indices" : 7,
                    "material" : 1
                }
            ]
        }
    ],
    "textures" : [
        {
            "source" : 0
        },
        {
            "source" : 1
        }
    ],
    "images" : [
        {
            "bufferView" : 4,
            "mimeType" : "image/jpeg",
            "name" : "eye"
        },
        {
            "bufferView" : 9,
            "mimeType" : "image/jpeg",
            "name" : "wood"
        }
    ],
    "accessors" : [
        {
            "bufferView" : 0,
            "componentType" : 5126,
            "count" : 384,
            "max" : [
                0.699588418006897,
                0.699588418006897,
                0.699588418006897
            ],
            "min" : [
                -0.699588418006897,
                -0.699588418006897,
                -0.699588418006897
            ],
            "type" : "VEC3"
        },
        {
            "bufferView" : 1,
            "componentType" : 5126,
            "count" : 384,
            "type" : "VEC3"
        },
        {
            "bufferView" : 2,
            "componentType" : 5126,
            "count" : 384,
            "type" : "VEC2"
        },
        {
            "bufferView" : 3,
            "componentType" : 5123,
            "count" : 576,
            "type" : "SCALAR"
        },
        {
            "bufferView" : 5,
            "componentType" : 5126,
            "count" : 56,
            "max" : [
                1.1924993991851807,
                1,
                1
            ],
            "min" : [
                -1,
                -1,
                -1
            ],
            "type" : "VEC3"
        },
        {
            "bufferView" : 6,
            "componentType" : 5126,
            "count" : 56,
            "type" : "VEC3"
        },
        {
            "bufferView" : 7,
            "componentType" : 5126,
            "count" : 56,
            "type" : "VEC2"
        },
        {
            "bufferView" : 8,
            "componentType" : 5123,
            "count" : 84,
            "type" : "SCALAR"
        }
    ],
    "bufferViews" : [
        {
            "buffer" : 0,
            "byteLength" : 4608,
            "byteOffset" : 0
        },
        {
            "buffer" : 0,
            "byteLength" : 4608,
            "byteOffset" : 4608
        },
        {
            "buffer" : 0,
            "byteLength" : 3072,
            "byteOffset" : 9216
        },
        {
            "buffer" : 0,
            "byteLength" : 1152,
            "byteOffset" : 12288
        },
        {
            "buffer" : 0,
            "byteLength" : 88334,
            "byteOffset" : 13440
        },
        {
            "buffer" : 0,
            "byteLength" : 672,
            "byteOffset" : 101776
        },
        {
            "buffer" : 0,
            "byteLength" : 672,
            "byteOffset" : 102448
        },
        {
            "buffer" : 0,
            "byteLength" : 448,
            "byteOffset" : 103120
        },
        {
            "buffer" : 0,
            "byteLength" : 168,
            "byteOffset" : 103568
        },
        {
            "buffer" : 0,
            "byteLength" : 29551,
            "byteOffset" : 103736
        }
    ],
    "buffers" : [
        {
            "byteLength" : 133288,
            "uri" : "data:application/octet-stream;base64,"
        }
    ]
}
