{
    "asset" : {
        "generator" : "Khronos glTF Blender I/O v0.9.11",
        "version" : "2.0"
    },
    "scene" : 0,
    "scenes" : [
        {
            "name" : "Scene",
            "nodes" : [
                0
            ]
        }
    ],
    "nodes" : [
        {
            "mesh" : 0,
            "name" : "Knight",
            "rotation" : [
                0.7071068286895752,
                0,
                0,
                0.7071067094802856
            ]
        }
    ],
    "materials" : [
        {
            "doubleSided" : true,
            "name" : "Material.001",
            "pbrMetallicRoughness" : {
                "baseColorFactor" : [
                    0.800000011920929,
                    0.5027260184288025,
                    0.5027260184288025,
                    1
                ],
                "metallicFactor" : 0,
                "roughnessFactor" : 0.5
            }
        },
        {
            "doubleSided" : true,
            "name" : "Material.003",
            "pbrMetallicRoughness" : {
                "baseColorFactor" : [
                    0.21261514723300934,
                    0.49692288041114807,
                    0.48291006684303284,
                    1
                ],
                "metallicFactor" : 0,
                "roughnessFactor" : 0.5
            }
        },
        {
            "doubleSided" : true,
            "name" : "Material.005",
            "pbrMetallicRoughness" : {
                "baseColorFactor" : [
                    0.281009316444397,
                    0.10307733714580536,
                    0,
                    1
                ],
                "metallicFactor" : 0,
                "roughnessFactor" : 0.5
            }
        },
        {
            "doubleSided" : true,
            "name" : "Material.002",
            "pbrMetallicRoughness" : {
                "baseColorFactor" : [
                    0.9258264303207397,
                    0.6921238303184509,
                    0.1833345890045166,
                    1
                ],
                "metallicFactor" : 0,
                "roughnessFactor" : 0.5
            }
        }
    ],
    "meshes" : [
        {
            "name" : "Mesh",
            "primitives" : [
                {
                    "attributes" : {
                        "POSITION" : 0,
                        "NORMAL" : 1,
                        "TEXCOORD_0" : 2
                    },
                    "indices" : 3,
                    "material" : 0
                },
                {
                    "attributes" : {
                        "POSITION" : 4,
                        "NORMAL" : 5,
                        "TEXCOORD_0" : 6
                    },
                    "indices" : 7,
                    "material" : 1
                },
                {
                    "attributes" : {
                        "POSITION" : 8,
                        "NORMAL" : 9,
                        "TEXCOORD_0" : 10
                    },
                    "indices" : 11,
                    "material" : 2
                },
                {
                    "attributes" : {
                        "POSITION" : 12,
                        "NORMAL" : 13,
                        "TEXCOORD_0" : 14
                    },
                    "indices" : 15,
                    "material" : 3
                }
            ]
        }
    ],
    "accessors" : [
        {
            "bufferView" : 0,
            "componentType" : 5126,
            "count" : 471,
            "max" : [
                0.7873421311378479,
                4.041786193847656,
                1.1321300268173218
            ],
            "min" : [
                -0.7873421311378479,
                0.49144044518470764,
                -0.6638619899749756
            ],
            "type" : "VEC3"
        },
        {
            "bufferView" : 1,
            "componentType" : 5126,
            "count" : 471,
            "type" : "VEC3"
        },
        {
            "bufferView" : 2,
            "componentType" : 5126,
            "count" : 471,
            "type" : "VEC2"
        },
        {
            "bufferView" : 3,
            "componentType" : 5123,
            "count" : 741,
            "type" : "SCALAR"
        },
        {
            "bufferView" : 4,
            "componentType" : 5126,
            "count" : 184,
            "max" : [
                1.673970103263855,
                2.2034831047058105,
                0.5296260118484497
            ],
            "min" : [
                -1.673970103263855,
                0.49313482642173767,
                -0.4369760751724243
            ],
            "type" : "VEC3"
        },
        {
            "bufferView" : 5,
            "componentType" : 5126,
            "count" : 184,
            "type" : "VEC3"
        },
        {
            "bufferView" : 6,
            "componentType" : 5126,
            "count" : 184,
            "type" : "VEC2"
        },
        {
            "bufferView" : 7,
            "componentType" : 5123,
            "count" : 288,
            "type" : "SCALAR"
        },
        {
            "bufferView" : 8,
            "componentType" : 5126,
            "count" : 844,
            "max" : [
                2.0378172397613525,
                2.0962748527526855,
                0.5577449798583984
            ],
            "min" : [
                -2.0378172397613525,
                0.0028063724748790264,
                -0.45898300409317017
            ],
            "type" : "VEC3"
        },
        {
            "bufferView" : 9,
            "componentType" : 5126,
            "count" : 844,
            "type" : "VEC3"
        },
        {
            "bufferView" : 10,
            "componentType" : 5126,
            "count" : 844,
            "type" : "VEC2"
        },
        {
            "bufferView" : 11,
            "componentType" : 5123,
            "count" : 1404,
            "type" : "SCALAR"
        },
        {
            "bufferView" : 12,
            "componentType" : 5126,
            "count" : 228,
            "max" : [
                0.8637693524360657,
                4.138082027435303,
                0.9907733201980591
            ],
            "min" : [
                -0.8637693524360657,
                2.6182055473327637,
                -0.8712701201438904
            ],
            "type" : "VEC3"
        },
        {
            "bufferView" : 13,
            "componentType" : 5126,
            "count" : 228,
            "type" : "VEC3"
        },
        {
            "bufferView" : 14,
            "componentType" : 5126,
            "count" : 228,
            "type" : "VEC2"
        },
        {
            "bufferView" : 15,
            "componentType" : 5123,
            "count" : 324,
            "type" : "SCALAR"
        }
    ],
    "bufferViews" : [
        {
            "buffer" : 0,
            "byteLength" : 5652,
            "byteOffset" : 0
        },
        {
            "buffer" : 0,
            "byteLength" : 5652,
            "byteOffset" : 5652
        },
        {
            "buffer" : 0,
            "byteLength" : 3768,
            "byteOffset" : 11304
        },
        {
            "buffer" : 0,
            "byteLength" : 1482,
            "byteOffset" : 15072
        },
        {
            "buffer" : 0,
            "byteLength" : 2208,
            "byteOffset" : 16556
        },
        {
            "buffer" : 0,
            "byteLength" : 2208,
            "byteOffset" : 18764
        },
        {
            "buffer" : 0,
            "byteLength" : 1472,
            "byteOffset" : 20972
        },
        {
            "buffer" : 0,
            "byteLength" : 576,
            "byteOffset" : 22444
        },
        {
            "buffer" : 0,
            "byteLength" : 10128,
            "byteOffset" : 23020
        },
        {
            "buffer" : 0,
            "byteLength" : 10128,
            "byteOffset" : 33148
        },
        {
            "buffer" : 0,
            "byteLength" : 6752,
            "byteOffset" : 43276
        },
        {
            "buffer" : 0,
            "byteLength" : 2808,
            "byteOffset" : 50028
        },
        {
            "buffer" : 0,
            "byteLength" : 2736,
            "byteOffset" : 52836
        },
        {
            "buffer" : 0,
            "byteLength" : 2736,
            "byteOffset" : 55572
        },
        {
            "buffer" : 0,
            "byteLength" : 1824,
            "byteOffset" : 58308
        },
        {
            "buffer" : 0,
            "byteLength" : 648,
            "byteOffset" : 60132
        }
    ],
    "buffers" : [
        {
            "byteLength" : 60780,
            "uri" : "data:application/octet-stream;base64,"
        }
    ]
}
